<svg xmlns="http://www.w3.org/2000/svg" width="32" height="32" viewBox="0 0 32 32"> <g fill="none" fill-rule="evenodd"> <g> <g transform="translate(-897 -765) translate(897 765)"> <path d="M4 4H28V28H4z"/> <path fill="#FAFBFC" d="M14.282 0h3.436c4.028 0 6.188.557 8.143 1.603 1.956 1.046 3.49 2.58 4.536 4.536C31.443 8.094 32 10.254 32 14.282v3.436c0 4.028-.557 6.188-1.603 8.143-1.046 1.956-2.58 3.49-4.536 4.536C23.906 31.443 21.746 32 17.718 32h-3.436c-4.028 0-6.188-.557-8.143-1.603-1.956-1.046-3.49-2.58-4.536-4.536C.557 23.906 0 21.746 0 17.718v-3.436c0-4.028.557-6.188 1.603-8.143 1.046-1.956 2.58-3.49 4.536-4.536C8.094.557 10.254 0 14.282 0z"/> <rect width="2" height="7" x="18" y="11" fill="#4D5054" rx="1"/> <path fill="#C1C9D4" d="M19 2c4.97 0 9 4.03 9 9 0 1.51-.372 2.933-1.029 4.182l-.885-.465C26.67 13.607 27 12.342 27 11c0-4.418-3.582-8-8-8s-8 3.582-8 8c0 1.707.535 3.29 1.446 4.59l-.82.572C10.603 14.7 10 12.92 10 11c0-4.97 4.03-9 9-9zm0 3c3.314 0 6 2.686 6 6 0 1.007-.248 1.956-.686 2.789l-.886-.465C23.793 12.63 24 11.839 24 11c0-2.761-2.239-5-5-5s-5 2.239-5 5c0 1.067.334 2.056.904 2.868l-.82.573C13.401 13.467 13 12.281 13 11c0-3.314 2.686-6 6-6zm0 3c1.657 0 3 1.343 3 3 0 .503-.124.977-.343 1.394l-.886-.464c.146-.278.229-.594.229-.93 0-1.105-.895-2-2-2s-2 .895-2 2c0 .427.134.822.361 1.147l-.819.573C16.2 12.233 16 11.64 16 11c0-1.657 1.343-3 3-3zM11.98 17h8.04c.955 0 1.878.342 2.603.963l.98.84c.887.76 1.397 1.869 1.397 3.037V24c0 1.105-.895 2-2 2H9c-1.105 0-2-.895-2-2v-2.16c0-1.168.51-2.277 1.397-3.037l.98-.84c.725-.621 1.648-.963 2.603-.963z"/> <rect width="9" height="2" x="9" y="22" fill="#4D5054" rx="1"/> <rect width="3" height="2" x="20" y="22" fill="#4D5054" rx="1"/> </g> </g> </g> </svg> 