<svg xmlns="http://www.w3.org/2000/svg" xmlns:xlink="http://www.w3.org/1999/xlink" width="32" height="32" viewBox="0 0 32 32"> <defs> <path id="72me7l53ya" d="M2 0h8l4 4v11c0 1.105-.895 2-2 2H2c-1.105 0-2-.895-2-2V2C0 .895.895 0 2 0z"/> <path id="9lnlq47led" d="M0-2h8l4 4v11c0 1.105-.895 2-2 2H0c-1.105 0-2-.895-2-2V0c0-1.105.895-2 2-2z"/> <path id="zw0yrx88ff" d="M2 0h8l4 4v11c0 1.105-.895 2-2 2H2c-1.105 0-2-.895-2-2V2C0 .895.895 0 2 0z"/> <linearGradient id="bid9nhfune" x1="50%" x2="50%" y1="0%" y2="100%"> <stop offset="0%" stop-color="#FFFCF3"/> <stop offset="100%" stop-color="#FAF2CB"/> </linearGradient> <filter id="vh10m48ppc" width="150%" height="141.2%" x="-25%" y="-14.7%" filterUnits="objectBoundingBox"> <feOffset dy="1" in="SourceAlpha" result="shadowOffsetOuter1"/> <feGaussianBlur in="shadowOffsetOuter1" result="shadowBlurOuter1" stdDeviation="1"/> <feColorMatrix in="shadowBlurOuter1" result="shadowMatrixOuter1" values="0 0 0 0 0 0 0 0 0 0 0 0 0 0 0 0 0 0 0.0833970717 0"/> <feOffset in="SourceAlpha" result="shadowOffsetOuter2"/> <feGaussianBlur in="shadowOffsetOuter2" result="shadowBlurOuter2" stdDeviation=".5"/> <feColorMatrix in="shadowBlurOuter2" result="shadowMatrixOuter2" values="0 0 0 0 0 0 0 0 0 0 0 0 0 0 0 0 0 0 0.433894231 0"/> <feMerge> <feMergeNode in="shadowMatrixOuter1"/> <feMergeNode in="shadowMatrixOuter2"/> </feMerge> </filter> </defs> <g fill="none" fill-rule="evenodd"> <g> <g> <path d="M4 4H28V28H4z" transform="translate(-937 -765) translate(937 765)"/> <path fill="#FAFBFC" d="M14.282 0h3.436c4.028 0 6.188.557 8.143 1.603 1.956 1.046 3.49 2.58 4.536 4.536C31.443 8.094 32 10.254 32 14.282v3.436c0 4.028-.557 6.188-1.603 8.143-1.046 1.956-2.58 3.49-4.536 4.536C23.906 31.443 21.746 32 17.718 32h-3.436c-4.028 0-6.188-.557-8.143-1.603-1.956-1.046-3.49-2.58-4.536-4.536C.557 23.906 0 21.746 0 17.718v-3.436c0-4.028.557-6.188 1.603-8.143 1.046-1.956 2.58-3.49 4.536-4.536C8.094.557 10.254 0 14.282 0z" transform="translate(-937 -765) translate(937 765)"/> <g> <g transform="translate(-937 -765) translate(937 765) translate(8 6) translate(2 2)"> <mask id="r5hk29gkjb" fill="#fff"> <use xlink:href="#72me7l53ya"/> </mask> <use fill="#4D5054" xlink:href="#72me7l53ya"/> <g mask="url(#r5hk29gkjb)" opacity=".42"> <use fill="#000" filter="url(#vh10m48ppc)" xlink:href="#9lnlq47led"/> <use fill="url(#bid9nhfune)" xlink:href="#9lnlq47led"/> </g> <path fill="#41435A" d="M2 2H6V3H2zM2 4H6V5H2zM2 7H12V8H2zM2 12H12V13H2zM2 9H10V10H2zM2 14H11V15H2z" mask="url(#r5hk29gkjb)"/> </g> <g transform="translate(-937 -765) translate(937 765) translate(8 6)"> <mask id="49izycay4g" fill="#fff"> <use xlink:href="#zw0yrx88ff"/> </mask> <use fill="#C1C9D4" xlink:href="#zw0yrx88ff"/> <path fill="#4D5054" d="M2 2H6V3H2zM2 4H6V5H2zM2 7H12V8H2zM2 12H12V13H2zM2 9H10V10H2zM2 14H11V15H2zM9 0h1l4 4v1h-4c-.552 0-1-.448-1-1V0z" mask="url(#49izycay4g)"/> </g> </g> </g> </g> </g> </svg> 