<svg xmlns="http://www.w3.org/2000/svg" width="32" height="32" viewBox="0 0 32 32"> <g fill="none" fill-rule="evenodd"> <g> <g> <g> <path d="M4 4H28V28H4z" transform="translate(-1017 -765) translate(1016 765) translate(1)"/> <path fill="#FAFBFC" d="M14.282 0h3.436c4.028 0 6.188.557 8.143 1.603 1.956 1.046 3.49 2.58 4.536 4.536C31.443 8.094 32 10.254 32 14.282v3.436c0 4.028-.557 6.188-1.603 8.143-1.046 1.956-2.58 3.49-4.536 4.536C23.906 31.443 21.746 32 17.718 32h-3.436c-4.028 0-6.188-.557-8.143-1.603-1.956-1.046-3.49-2.58-4.536-4.536C.557 23.906 0 21.746 0 17.718v-3.436c0-4.028.557-6.188 1.603-8.143 1.046-1.956 2.58-3.49 4.536-4.536C8.094.557 10.254 0 14.282 0z" transform="translate(-1017 -765) translate(1016 765) translate(1)"/> <g> <path fill="#C1C9D4" d="M8.5 0C10.433 0 12 1.567 12 3.5V9c0 1.105-.895 2-2 2H7c-1.105 0-2-.895-2-2V3.5C5 1.567 6.567 0 8.5 0z" transform="translate(-1017 -765) translate(1016 765) translate(1) rotate(45 6.464 22.657)"/> <path fill="#4D5054" d="M17 2v8c-2.21 0-4-1.79-4-4s1.79-4 4-4z" transform="translate(-1017 -765) translate(1016 765) translate(1) rotate(45 6.464 22.657)"/> <path fill="#4D5054" d="M10.5 9.5v9c-2.21 0-4-1.79-4-4v-1c0-2.21 1.79-4 4-4z" transform="translate(-1017 -765) translate(1016 765) translate(1) rotate(45 6.464 22.657) rotate(90 8.5 14)"/> <path fill="#4D5054" d="M4 2v8c-2.21 0-4-1.79-4-4s1.79-4 4-4z" transform="translate(-1017 -765) translate(1016 765) translate(1) rotate(45 6.464 22.657) matrix(-1 0 0 1 4 0)"/> </g> <path fill="#C1C9D4" d="M4.663 13.579l1.128.989C4.52 16.018 3.75 17.919 3.75 20c0 4.556 3.694 8.25 8.25 8.25 2.036 0 3.899-.737 5.338-1.96l.97 1.145c-1.7 1.444-3.902 2.315-6.308 2.315-5.385 0-9.75-4.365-9.75-9.75 0-2.46.91-4.706 2.413-6.421zm2.257 1.976l1.129.988C7.24 17.466 6.75 18.676 6.75 20c0 2.9 2.35 5.25 5.25 5.25 1.295 0 2.481-.47 3.397-1.247l.97 1.144c-1.177 1-2.701 1.603-4.367 1.603-3.728 0-6.75-3.022-6.75-6.75 0-1.702.63-3.257 1.67-4.445zm2.258 1.975l1.13.988c-.348.396-.558.914-.558 1.482 0 1.243 1.007 2.25 2.25 2.25.555 0 1.063-.201 1.456-.534l.97 1.144c-.654.555-1.5.89-2.426.89-2.071 0-3.75-1.679-3.75-3.75 0-.946.35-1.81.928-2.47z" transform="translate(-1017 -765) translate(1016 765) translate(1)"/> </g> </g> </g> </g> </svg> 