<svg xmlns="http://www.w3.org/2000/svg" width="32" height="32" viewBox="0 0 32 32"> <g fill="none" fill-rule="evenodd"> <g> <g> <path d="M4 4H28V28H4z" transform="translate(-857 -805) translate(857 805)"/> <path fill="#FAFBFC" d="M14.282 0h3.436c4.028 0 6.188.557 8.143 1.603 1.956 1.046 3.49 2.58 4.536 4.536C31.443 8.094 32 10.254 32 14.282v3.436c0 4.028-.557 6.188-1.603 8.143-1.046 1.956-2.58 3.49-4.536 4.536C23.906 31.443 21.746 32 17.718 32h-3.436c-4.028 0-6.188-.557-8.143-1.603-1.956-1.046-3.49-2.58-4.536-4.536C.557 23.906 0 21.746 0 17.718v-3.436c0-4.028.557-6.188 1.603-8.143 1.046-1.956 2.58-3.49 4.536-4.536C8.094.557 10.254 0 14.282 0z" transform="translate(-857 -805) translate(857 805)"/> <g transform="translate(-857 -805) translate(857 805) rotate(-90 17 10)"> <rect width="7" height="18" x="11" fill="#C1C9D4" rx="2"/> <path fill="#4D5054" d="M13.088 4.999L4.17 8.349c-.517.195-.778.771-.584 1.288.083.222.242.407.45.522l1.892 1.055-3.346 3.346c-.073.073-.11.169-.11.265s.037.192.11.265l1.703 1.702c.07.07.165.11.265.11s.194-.04.265-.11l3.345-3.345 1.055 1.893c.27.482.879.655 1.36.386.208-.115.367-.3.45-.522l3.35-8.917c.195-.517-.067-1.094-.584-1.288-.226-.085-.476-.085-.703 0z" transform="rotate(22 8.65 10.724)"/> </g> </g> </g> </g> </svg> 