<svg xmlns="http://www.w3.org/2000/svg" width="32" height="32" viewBox="0 0 32 32"> <g fill="none" fill-rule="evenodd"> <g> <g transform="translate(-1017 -805) translate(1017 805)"> <path d="M4 4H28V28H4z"/> <path fill="#FAFBFC" d="M14.282 0h3.436c4.028 0 6.188.557 8.143 1.603 1.956 1.046 3.49 2.58 4.536 4.536C31.443 8.094 32 10.254 32 14.282v3.436c0 4.028-.557 6.188-1.603 8.143-1.046 1.956-2.58 3.49-4.536 4.536C23.906 31.443 21.746 32 17.718 32h-3.436c-4.028 0-6.188-.557-8.143-1.603-1.956-1.046-3.49-2.58-4.536-4.536C.557 23.906 0 21.746 0 17.718v-3.436c0-4.028.557-6.188 1.603-8.143 1.046-1.956 2.58-3.49 4.536-4.536C8.094.557 10.254 0 14.282 0z"/> <rect width="16" height="24" x="11" y="4" fill="#C1C9D4" rx="3"/> <rect width="4" height="2" x="18" y="6" fill="#4D5054" rx="1"/> <rect width="2" height="2" x="15" y="6" fill="#4D5054" rx="1"/> <path fill="#4D5054" d="M7 7h14c1.105 0 2 .895 2 2v11.586c0 .552-.448 1-1 1-.265 0-.52-.106-.707-.293l-2-2c-.188-.188-.442-.293-.707-.293H7c-1.105 0-2-.895-2-2V9c0-1.105.895-2 2-2z" transform="rotate(180 14 15)"/> <rect width="12" height="2" x="8" y="14" fill="#C1C9D4" rx="1"/> <rect width="8" height="2" x="8" y="18" fill="#C1C9D4" rx="1"/> </g> </g> </g> </svg> 