<svg xmlns="http://www.w3.org/2000/svg" width="32" height="32" viewBox="0 0 32 32"> <g fill="none" fill-rule="evenodd"> <g> <g> <path fill="#FAFBFC" d="M14.282 0h3.436c4.028 0 6.188.557 8.143 1.603 1.956 1.046 3.49 2.58 4.536 4.536C31.443 8.094 32 10.254 32 14.282v3.436c0 4.028-.557 6.188-1.603 8.143-1.046 1.956-2.58 3.49-4.536 4.536C23.906 31.443 21.746 32 17.718 32h-3.436c-4.028 0-6.188-.557-8.143-1.603-1.956-1.046-3.49-2.58-4.536-4.536C.557 23.906 0 21.746 0 17.718v-3.436c0-4.028.557-6.188 1.603-8.143 1.046-1.956 2.58-3.49 4.536-4.536C8.094.557 10.254 0 14.282 0z" transform="translate(-817 -805) translate(817 805)"/> <path fill="#4D5054" d="M18.883 12.993c-.497-.057-.883-.48-.883-.993 0-.552.448-1 1-1h3c.552 0 1 .448 1 1s-.448 1-1 1v2h.125l3.473 7.124c.484.992.071 2.19-.922 2.674-.273.133-.572.202-.876.202h-6.6c-1.105 0-2-.895-2-2 0-.304.07-.603.202-.876L18.875 15H19v-2z" transform="translate(-817 -805) translate(817 805)"/> <path fill="#C1C9D4" d="M11.883 9.993C11.386 9.936 11 9.513 11 9c0-.552.448-1 1-1h4c.552 0 1 .448 1 1s-.448 1-1 1v3l4.553 9.106c.494.988.093 2.189-.895 2.683-.277.139-.584.211-.894.211H9.236c-1.105 0-2-.895-2-2 0-.31.072-.617.211-.894L12 13v-3z" transform="translate(-817 -805) translate(817 805)"/> <path fill="#4D5054" d="M12.75 17h2.5l2.794 4.47c.292.468.15 1.085-.318 1.378-.16.1-.343.152-.53.152h-6.392c-.552 0-1-.448-1-1 0-.187.053-.371.152-.53L12.75 17z" transform="translate(-817 -805) translate(817 805)"/> </g> </g> </g> </svg> 