<svg xmlns="http://www.w3.org/2000/svg" width="32" height="32" viewBox="0 0 32 32"> <g fill="none" fill-rule="evenodd"> <g> <g> <path fill="#F6F7F8" d="M14.282 0h3.436c4.028 0 6.188.557 8.143 1.603 1.956 1.046 3.49 2.58 4.536 4.536C31.443 8.094 32 10.254 32 14.282v3.436c0 4.028-.557 6.188-1.603 8.143-1.046 1.956-2.58 3.49-4.536 4.536C23.906 31.443 21.746 32 17.718 32h-3.436c-4.028 0-6.188-.557-8.143-1.603-1.956-1.046-3.49-2.58-4.536-4.536C.557 23.906 0 21.746 0 17.718v-3.436c0-4.028.557-6.188 1.603-8.143 1.046-1.956 2.58-3.49 4.536-4.536C8.094.557 10.254 0 14.282 0z" transform="translate(-977 -845) translate(977 845)"/> <path fill="#FF4A00" fill-rule="nonzero" d="M18 16.004c0 .577-.104 1.149-.307 1.688-.54.204-1.112.308-1.69.308h-.006c-.577 0-1.15-.104-1.69-.307-.203-.54-.307-1.112-.307-1.69v-.007c0-.594.11-1.163.307-1.689.54-.203 1.112-.307 1.689-.307h.007c.594 0 1.163.11 1.688.307.204.54.308 1.112.308 1.69v.007H18zm6.875-1.504h-5.253l3.714-3.715c-.584-.82-1.3-1.537-2.121-2.12L17.5 12.378V7.125C17.006 7.042 16.506 7 16.005 7h-.01c-.51 0-1.008.044-1.495.125v5.254l-3.716-3.715c-.409.291-.793.616-1.148.972l-.001.001c-.355.355-.68.74-.971 1.148l3.715 3.715H7.125S7 15.487 7 15.997v.006c0 .51.043 1.01.125 1.497h5.255l-3.717 3.714c.585.82 1.302 1.537 2.122 2.121l3.715-3.714v5.254c.486.081.985.124 1.494.125h.012c.5 0 1-.042 1.494-.125V19.62l3.715 3.715c.41-.291.793-.616 1.149-.971.355-.356.68-.74.971-1.15L19.621 17.5h5.255c.081-.486.124-.984.124-1.494v-.013c0-.5-.042-1-.125-1.493z" transform="translate(-977 -845) translate(977 845)"/> </g> </g> </g> </svg> 