<svg xmlns="http://www.w3.org/2000/svg" width="32" height="32" viewBox="0 0 32 32"> <g fill="none" fill-rule="evenodd"> <g> <g transform="translate(-857 -765) translate(857 765)"> <path d="M4 4H28V28H4z"/> <path fill="#FAFBFC" d="M14.282 0h3.436c4.028 0 6.188.557 8.143 1.603 1.956 1.046 3.49 2.58 4.536 4.536C31.443 8.094 32 10.254 32 14.282v3.436c0 4.028-.557 6.188-1.603 8.143-1.046 1.956-2.58 3.49-4.536 4.536C23.906 31.443 21.746 32 17.718 32h-3.436c-4.028 0-6.188-.557-8.143-1.603-1.956-1.046-3.49-2.58-4.536-4.536C.557 23.906 0 21.746 0 17.718v-3.436c0-4.028.557-6.188 1.603-8.143 1.046-1.956 2.58-3.49 4.536-4.536C8.094.557 10.254 0 14.282 0z"/> <g> <path fill="#C1C9D4" d="M2 0h16c.552 0 1 .448 1 1l-1 9H2L1 1c0-.552.448-1 1-1z" transform="translate(6 8)"/> <path fill="#4D5054" d="M2.117 1h15.766c.552 0 1 .448 1 1 0 .037-.002.074-.006.11L18 10H2l-.877-7.89c-.06-.548.335-1.043.884-1.104.037-.004.073-.006.11-.006z" transform="translate(6 8)"/> <path fill="#C1C9D4" d="M3.153 2h13.694c.552 0 1 .448 1 1 0 .047-.003.095-.01.141L17 9H3l-.837-5.859c-.078-.546.302-1.053.849-1.13.046-.008.094-.011.141-.011zM.879 11.121L2 10h16l1.121 1.121c.563.563.879 1.326.879 2.122V14c0 .552-.448 1-1 1H1c-.552 0-1-.448-1-1v-.757c0-.796.316-1.56.879-2.122z" transform="translate(6 8)"/> <path fill="#4D5054" d="M0 13h20c0 1.105-.895 2-2 2H2c-1.105 0-2-.895-2-2z" transform="translate(6 8)"/> </g> <rect width="4" height="4" x="14" y="10" fill="#4D5054" rx="2"/> <path fill="#4D5054" d="M16 14c1.657 0 3 1.343 3 3h-6c0-1.657 1.343-3 3-3z"/> </g> </g> </g> </svg> 