<svg xmlns="http://www.w3.org/2000/svg" width="32" height="32" viewBox="0 0 32 32"> <g fill="none" fill-rule="evenodd"> <g> <g> <path d="M4 5H28V29H4z" transform="translate(-897 -845) translate(897 844)"/> <path fill="#FAFBFC" d="M14.282 1h3.436c4.028 0 6.188.557 8.143 1.603 1.956 1.046 3.49 2.58 4.536 4.536C31.443 9.094 32 11.254 32 15.282v3.436c0 4.028-.557 6.188-1.603 8.143-1.046 1.956-2.58 3.49-4.536 4.536C23.906 32.443 21.746 33 17.718 33h-3.436c-4.028 0-6.188-.557-8.143-1.603-1.956-1.046-3.49-2.58-4.536-4.536C.557 24.906 0 22.746 0 18.718v-3.436c0-4.028.557-6.188 1.603-8.143 1.046-1.956 2.58-3.49 4.536-4.536C8.094 1.557 10.254 1 14.282 1z" transform="translate(-897 -845) translate(897 844)"/> <g transform="translate(-897 -845) translate(897 844) rotate(-45 12.914 5.05)"> <path fill="#C1C9D4" d="M.632 8.188l3.21-4.128c1.357-1.744 3.87-2.058 5.614-.702.262.204.498.44.701.702l3.211 4.128c.41.526.632 1.174.632 1.841V22c0 1.657-1.343 3-3 3H3c-1.657 0-3-1.343-3-3V10.03c0-.668.222-1.316.632-1.842z"/> <circle cx="7" cy="8" r="2" fill="#4D5054"/> <rect width="4" height="10" x="5" y="12" fill="#4D5054" rx="2"/> </g> </g> </g> </g> </svg> 