<svg xmlns="http://www.w3.org/2000/svg" width="32" height="32" viewBox="0 0 32 32"> <g fill="none" fill-rule="evenodd"> <g> <g> <path fill="#F6F7F8" d="M14.282 0h3.436c4.028 0 6.188.557 8.143 1.603 1.956 1.046 3.49 2.58 4.536 4.536C31.443 8.094 32 10.254 32 14.282v3.436c0 4.028-.557 6.188-1.603 8.143-1.046 1.956-2.58 3.49-4.536 4.536C23.906 31.443 21.746 32 17.718 32h-3.436c-4.028 0-6.188-.557-8.143-1.603-1.956-1.046-3.49-2.58-4.536-4.536C.557 23.906 0 21.746 0 17.718v-3.436c0-4.028.557-6.188 1.603-8.143 1.046-1.956 2.58-3.49 4.536-4.536C8.094.557 10.254 0 14.282 0z" transform="translate(-857 -845) translate(857 845)"/> <path fill="#6773E6" d="M15.3 12.2c0-.69.57-1 1.49-1 1.525.033 3.02.42 4.37 1.13V8.24c-1.388-.544-2.869-.816-4.36-.8-3.56 0-5.94 1.86-5.94 5 0 4.86 6.68 4.07 6.68 6.17 0 .81-.71 1.07-1.68 1.07-1.709-.094-3.372-.584-4.86-1.43v4.19c1.516.655 3.149.995 4.8 1 3.65 0 6.17-1.8 6.17-5 .03-5.21-6.67-4.27-6.67-6.24z" transform="translate(-857 -845) translate(857 845)"/> </g> </g> </g> </svg> 