<svg xmlns="http://www.w3.org/2000/svg" width="32" height="32" viewBox="0 0 32 32"> <g fill="none" fill-rule="evenodd"> <g> <g transform="translate(-817 -845) translate(817 845)"> <path fill="#F6F7F8" d="M14.282 0h3.436c4.028 0 6.188.557 8.143 1.603 1.956 1.046 3.49 2.58 4.536 4.536C31.443 8.094 32 10.254 32 14.282v3.436c0 4.028-.557 6.188-1.603 8.143-1.046 1.956-2.58 3.49-4.536 4.536C23.906 31.443 21.746 32 17.718 32h-3.436c-4.028 0-6.188-.557-8.143-1.603-1.956-1.046-3.49-2.58-4.536-4.536C.557 23.906 0 21.746 0 17.718v-3.436c0-4.028.557-6.188 1.603-8.143 1.046-1.956 2.58-3.49 4.536-4.536C8.094.557 10.254 0 14.282 0z"/> <path fill="#000" d="M22 7c1.657 0 3 1.343 3 3v12c0 1.657-1.343 3-3 3H10c-1.657 0-3-1.343-3-3V10c0-1.657 1.343-3 3-3h12zm0 3H10v12h12V10z"/> <rect width="6" height="6" x="13" y="13" fill="#000" rx="2"/> </g> </g> </g> </svg> 