<svg xmlns="http://www.w3.org/2000/svg" width="32" height="32" viewBox="0 0 32 32"> <g fill="none" fill-rule="evenodd"> <g> <g transform="translate(-977 -805) translate(977 805)"> <path d="M4 4H28V28H4z"/> <path fill="#FAFBFC" d="M14.282 0h3.436c4.028 0 6.188.557 8.143 1.603 1.956 1.046 3.49 2.58 4.536 4.536C31.443 8.094 32 10.254 32 14.282v3.436c0 4.028-.557 6.188-1.603 8.143-1.046 1.956-2.58 3.49-4.536 4.536C23.906 31.443 21.746 32 17.718 32h-3.436c-4.028 0-6.188-.557-8.143-1.603-1.956-1.046-3.49-2.58-4.536-4.536C.557 23.906 0 21.746 0 17.718v-3.436c0-4.028.557-6.188 1.603-8.143 1.046-1.956 2.58-3.49 4.536-4.536C8.094.557 10.254 0 14.282 0z"/> <circle cx="22" cy="20" r="2" fill="#4D5054"/> <circle cx="7" cy="25" r="2" fill="#4D5054"/> <path stroke="#4D5054" stroke-linejoin="round" stroke-width="2" d="M7 25l2.182-3.482c1.159-1.849 3.597-2.409 5.446-1.25.325.204.619.454.872.742 1.297 1.479 3.547 1.626 5.026.329.348-.305.633-.676.84-1.09L22 18.974h0"/> <path fill="#C1C9D4" d="M22 4c3.314 0 6 2.686 6 6 0 2.61-1.526 5.55-4.514 8.868-.046.052-.096.101-.148.148-.82.74-2.085.673-2.824-.148C17.526 15.55 16 12.61 16 10c0-3.314 2.686-6 6-6z"/> <circle cx="22" cy="10" r="2" fill="#4D5054"/> </g> </g> </g> </svg> 