<svg xmlns="http://www.w3.org/2000/svg" width="32" height="32" viewBox="0 0 32 32"> <g fill="none" fill-rule="evenodd"> <g> <g> <g fill="#F6F7F8"> <path d="M14.282 0h3.436c4.028 0 6.188.557 8.143 1.603 1.956 1.046 3.49 2.58 4.536 4.536C31.443 8.094 32 10.254 32 14.282v3.436c0 4.028-.557 6.188-1.603 8.143-1.046 1.956-2.58 3.49-4.536 4.536C23.906 31.443 21.746 32 17.718 32h-3.436c-4.028 0-6.188-.557-8.143-1.603-1.956-1.046-3.49-2.58-4.536-4.536C.557 23.906 0 21.746 0 17.718v-3.436c0-4.028.557-6.188 1.603-8.143 1.046-1.956 2.58-3.49 4.536-4.536C8.094.557 10.254 0 14.282 0z" transform="translate(-897 -805) translate(897 805)"/> </g> <g fill-rule="nonzero" transform="translate(-897 -805) translate(897 805) translate(7 7)"> <circle cx="9" cy="9" r="9" fill="#2CA01C"/> <path fill="#FFF" d="M2 9c0 1.966 1.567 3.56 3.5 3.56H6v-1.323h-.5c-1.214 0-2.2-1.003-2.2-2.237 0-1.234.986-2.238 2.2-2.238h1.2v6.916C6.7 14.408 7.284 15 8 15V5.44H5.5C3.566 5.44 2 7.034 2 9zm9.5-3.56H11v1.323h.5c1.213 0 2.2 1.004 2.2 2.237 0 1.234-.987 2.238-2.2 2.238H10.3V4.322c0-.73-.582-1.322-1.3-1.322v9.56H11.5C13.433 12.56 15 10.966 15 9s-1.567-3.56-3.5-3.56z"/> </g> </g> </g> </g> </svg> 