<svg xmlns="http://www.w3.org/2000/svg" width="32" height="32" viewBox="0 0 32 32"> <g fill="none" fill-rule="evenodd"> <g> <g transform="translate(-937 -845) translate(937 845)"> <path d="M4 4H28V28H4z"/> <path fill="#FAFBFC" d="M14.282 0h3.436c4.028 0 6.188.557 8.143 1.603 1.956 1.046 3.49 2.58 4.536 4.536C31.443 8.094 32 10.254 32 14.282v3.436c0 4.028-.557 6.188-1.603 8.143-1.046 1.956-2.58 3.49-4.536 4.536C23.906 31.443 21.746 32 17.718 32h-3.436c-4.028 0-6.188-.557-8.143-1.603-1.956-1.046-3.49-2.58-4.536-4.536C.557 23.906 0 21.746 0 17.718v-3.436c0-4.028.557-6.188 1.603-8.143 1.046-1.956 2.58-3.49 4.536-4.536C8.094.557 10.254 0 14.282 0z"/> <path stroke="#C1C9D4" d="M23.585 8.5c.318 0 .619.1.866.275.248.176.443.426.548.726h0l3.648 10.334c.322.912.243 1.867-.143 2.675-.387.808-1.081 1.469-1.993 1.79-.374.133-.768.2-1.165.2h0H6.654c-.967 0-1.842-.392-2.475-1.025-.634-.634-1.025-1.509-1.025-2.475 0-.397.067-.79.2-1.165h0L7 9.501c.105-.3.3-.55.548-.726.247-.175.548-.275.866-.275h0z"/> <circle cx="21.5" cy="19.5" r="2.5" fill="#4D5054"/> <circle cx="16.5" cy="19.5" r="2.5" fill="#4D5054"/> <path fill="#C1C9D4" d="M16 9H17V17H16zM21 9H22V17H21z"/> <path fill="#C1C9D4" d="M10.333 8.134H11.666V16.134H10.333z" transform="rotate(30 11 12.134)"/> <circle cx="7.5" cy="17.5" r="2.5" fill="#4D5054"/> </g> </g> </g> </svg> 