<svg xmlns="http://www.w3.org/2000/svg" width="30" height="31" viewBox="0 0 30 31"> <g fill="none" fill-rule="evenodd"> <g> <g> <g transform="translate(-1663 -2123) translate(1666 2124) translate(2)"> <circle cx="12" cy="12" r="12" fill="#4C4951" stroke="#FFA100" stroke-width="2"/> <g fill-rule="nonzero"> <g> <path fill="#45424A" d="M17.979 14.535c-.006 1.9-1.544 3.438-3.444 3.444H3.443C1.544 17.973.006 16.435 0 14.535V3.443C.005 1.543 1.544.005 3.443 0h11.092c1.9.005 3.438 1.544 3.444 3.443v11.092z" transform="translate(3 3)"/> <path fill="#56535B" d="M17.184 14.43c0 1.858-1.412 3.379-3.139 3.379H3.934c-1.727 0-3.14-1.52-3.14-3.379V3.548C.794 1.69 2.207.17 3.934.17h10.111c1.727 0 3.14 1.52 3.14 3.378V14.43z" transform="translate(3 3)"/> <path fill="#605D66" d="M15.993 14.298c0 1.812-1.207 3.295-2.681 3.295H4.669c-1.476 0-2.681-1.483-2.681-3.295V3.682c0-1.812 1.207-3.295 2.68-3.295h8.642c1.476 0 2.681 1.483 2.681 3.295l.002 10.616z" transform="translate(3 3)"/> <path fill="#45424A" d="M4.066 4.217S.01 3.067.01 7.086c0 4.776 2.95 4.599 2.95 4.599l1.106-7.468z" transform="translate(3 3)"/> <path fill="#605D66" d="M4.066 4.217S.322 3.522.21 7.125c-.114 3.603 2.879 4.709 2.879 4.709l.978-7.617z" transform="translate(3 3)"/> <path fill="#45424A" d="M13.868 4.217s4.057-1.15 4.057 2.869c0 4.776-2.95 4.599-2.95 4.599l-1.107-7.468z" transform="translate(3 3)"/> <path fill="#605D66" d="M13.868 4.217s3.745-.695 3.858 2.908c.114 3.603-2.88 4.709-2.88 4.709l-.978-7.617z" transform="translate(3 3)"/> <path fill="#E5CC94" d="M17.034 7.254c-.052-2.085-1.25-2.73-3.245-2.543-1.107.105-3.198.578-4.813.578-1.616 0-3.706-.473-4.815-.578C2.166 4.523.97 5.167.916 7.254c-.056 2.217 1.375 3.241 2.218 3.65.518.351.474.67.492 1.163l-.192 1.72C3.201 15.905 4.992 17.372 9 17.372c4.04 0 5.832-1.316 5.516-3.585l-.198-1.799c.017-.714.177-.77.397-1.037.821-.372 2.38-1.386 2.32-3.697z" transform="translate(3 3)"/> <path fill="#FEFCFC" d="M6.506 8.344c0 .712-.428 1.353-1.085 1.626-.658.272-1.414.122-1.918-.381-.503-.503-.653-1.26-.381-1.917.272-.658.914-1.086 1.625-1.086.972 0 1.76.787 1.76 1.758z" transform="translate(3 3)"/> <path fill="#45424A" d="M5.57 8.344c0 .333-.2.633-.508.76-.307.128-.661.058-.897-.177-.235-.236-.305-.59-.178-.897.127-.308.427-.508.76-.508.455 0 .823.368.823.822z" transform="translate(3 3)"/> <path fill="#FEFCFC" d="M14.847 8.344c0 .712-.429 1.353-1.086 1.626-.657.272-1.414.122-1.917-.381-.503-.503-.654-1.26-.382-1.917.273-.658.914-1.086 1.626-1.086.971 0 1.759.787 1.759 1.758z" transform="translate(3 3)"/> <path fill="#45424A" d="M13.91 8.344c0 .333-.2.633-.507.76-.308.128-.662.058-.897-.177-.236-.236-.306-.59-.179-.897.128-.308.428-.508.76-.508.455 0 .823.368.824.822zM10.492 9.777c-.611 0-1.106.495-1.106 1.106v1.107h1.106c.611 0 1.106-.496 1.106-1.107 0-.61-.495-1.106-1.106-1.106zM7.485 9.777c.611 0 1.106.495 1.106 1.106v1.107H7.485c-.61 0-1.106-.496-1.106-1.107 0-.61.495-1.106 1.106-1.106zM10.24 15.607c.005.117-.008.252.035.405.032.151.12.32.09.461-.02.128-.268.258-.571.131-.294-.11-.643-.479-.628-.997-.015-.518.334-.887.628-.998.303-.128.553.003.57.131.032.141-.057.31-.09.462-.042.152-.029.287-.034.405zM9.627 2.812S11.3 2.046 12.52 2.7c0 0-.907-1.674-2.524-1.305 0 0 .822-.851 1.9-.851 0 0-2.298-1.362-5.106.51 0 0 1.504-.879 3.631-.453L9.145 1.763s.766-.397 1.9.283c0 0-.766.085-1.418.766z" transform="translate(3 3)"/> </g> </g> </g> <g transform="translate(-1663 -2123) translate(1666 2124) matrix(-1 0 0 1 11 16)"> <path fill="#1E7EF7" stroke="#FFF" stroke-linejoin="round" stroke-width="2" d="M7.232.704C5.976.296 4.674.435 3.583.99c-1.09.555-1.968 1.527-2.376 2.782-.292.898-.304 1.818-.084 2.669-.344.375-.792.71-1.336 1.012h0l-2.7 1.503 3.07.364c1.933.229 3.23.369 3.89.421 1.372.405 2.679.285 3.75-.203 1.18-.539 2.087-1.527 2.504-2.81.408-1.256.269-2.558-.287-3.649C9.46 1.99 8.487 1.112 7.232.704z"/> <rect width="5" height="1" x="3" y="4" fill="#FFF" rx=".5"/> <rect width="4" height="1" x="3" y="6" fill="#FFF" rx=".5"/> </g> </g> </g> </g> </svg> 