<svg width="32" height="38" viewBox="0 0 32 38" fill="none" xmlns="http://www.w3.org/2000/svg"> <path fill-rule="evenodd" clip-rule="evenodd" d="M17.7178 0C21.7456 0 23.9055 0.556954 25.8611 1.6028C27.8166 2.64864 29.3514 4.18337 30.3972 6.13893C31.443 8.09448 32 10.2544 32 14.2822V17.7178C32 21.7456 31.443 23.9055 30.3972 25.8611C29.3514 27.8166 27.8166 29.3514 25.8611 30.3972C25.1087 30.7996 24.326 31.1296 23.4184 31.3834C21.9596 31.9549 20.6698 32.8928 19.6739 34.11L17.5476 36.7086C16.8481 37.5635 15.5881 37.6894 14.7332 36.9899C14.6304 36.9058 14.5362 36.8116 14.4521 36.7088L12.4099 34.2137C11.3701 32.9434 10.0251 31.9621 8.50461 31.3591C7.62826 31.1103 6.86934 30.7878 6.13893 30.3972C4.18337 29.3514 2.64864 27.8166 1.6028 25.8611C0.556954 23.9055 0 21.7456 0 17.7178L0 14.2822C0 10.2544 0.556954 8.09448 1.6028 6.13893C2.64864 4.18337 4.18337 2.64864 6.13893 1.6028C8.09448 0.556954 10.2544 0 14.2822 0L17.7178 0Z" fill="#00AADD"/> </svg>