<svg xmlns="http://www.w3.org/2000/svg" width="36" height="43" viewBox="0 0 36 43"> <g fill="none" fill-rule="evenodd"> <g> <g> <path fill="#000" d="M0 27c0-4.97 4.03-9 9-9h14c4.97 0 9 4.03 9 9s-4.03 9-9 9h1c-1.699.392-3.253 1.253-4.485 2.485L18.12 39.88c-1.171 1.171-3.07 1.171-4.242 0l-1.31-1.31C11.31 37.31 9.729 36.42 8 36h1c-4.97 0-9-4.03-9-9z" opacity=".262" transform="translate(-206 -36) translate(208 38)"/> <path stroke="#FFF" stroke-width="4" d="M17.718 0c4.028 0 6.188.557 8.143 1.603 1.956 1.046 3.49 2.58 4.536 4.536C31.443 8.094 32 10.254 32 14.282v3.436c0 4.028-.557 6.188-1.603 8.143-1.046 1.956-2.58 3.49-4.536 4.536-.752.403-1.535.733-2.443.986-1.458.572-2.748 1.51-3.744 2.727l-2.126 2.599c-.7.854-1.96.98-2.815.28-.103-.083-.197-.177-.28-.28l-2.043-2.495c-1.04-1.27-2.385-2.252-3.905-2.855-.877-.249-1.636-.571-2.366-.962-1.956-1.046-3.49-2.58-4.536-4.536C.557 23.906 0 21.746 0 17.718v-3.436c0-4.028.557-6.188 1.603-8.143 1.046-1.956 2.58-3.49 4.536-4.536C8.094.557 10.254 0 14.282 0h3.436z" transform="translate(-206 -36) translate(208 38)"/> <path fill="#f45d29" d="M17.718 0c4.028 0 6.188.557 8.143 1.603 1.956 1.046 3.49 2.58 4.536 4.536C31.443 8.094 32 10.254 32 14.282v3.436c0 4.028-.557 6.188-1.603 8.143-1.046 1.956-2.58 3.49-4.536 4.536-.752.403-1.535.733-2.443.986-1.458.572-2.748 1.51-3.744 2.727l-2.126 2.599c-.7.854-1.96.98-2.815.28-.103-.083-.197-.177-.28-.28l-2.043-2.495c-1.04-1.27-2.385-2.252-3.905-2.855-.877-.249-1.636-.571-2.366-.962-1.956-1.046-3.49-2.58-4.536-4.536C.557 23.906 0 21.746 0 17.718v-3.436c0-4.028.557-6.188 1.603-8.143 1.046-1.956 2.58-3.49 4.536-4.536C8.094.557 10.254 0 14.282 0h3.436z" transform="translate(-206 -36) translate(208 38)"/> </g> </g> </g> </svg>