<svg xmlns="http://www.w3.org/2000/svg" width="32" height="32" viewBox="0 0 32 32"> <g fill="none" fill-rule="evenodd"> <g> <g> <g> <g> <path d="M14.282 0h3.436c4.028 0 6.188.557 8.143 1.603 1.956 1.046 3.49 2.58 4.536 4.536C31.443 8.094 32 10.254 32 14.282v3.436c0 4.028-.557 6.188-1.603 8.143-1.046 1.956-2.58 3.49-4.536 4.536C23.906 31.443 21.746 32 17.718 32h-3.436c-4.028 0-6.188-.557-8.143-1.603-1.956-1.046-3.49-2.58-4.536-4.536C.557 23.906 0 21.746 0 17.718v-3.436c0-4.028.557-6.188 1.603-8.143 1.046-1.956 2.58-3.49 4.536-4.536C8.094.557 10.254 0 14.282 0z" transform="translate(-914 -345) translate(818 120) translate(0 225) translate(96)"/> <path fill="#C1C9D4" d="M19.064 15.877l2.38.678c1.485.425 2.593 1.666 2.847 3.189l.362 2.174c.182 1.09-.554 2.12-1.644 2.301-.036.006-.071.011-.107.015l-2.555.285c-2.862.32-5.75.321-8.613.005L9.1 24.232c-1.098-.121-1.89-1.11-1.768-2.207.004-.037.01-.073.015-.11l.362-2.171c.254-1.523 1.362-2.764 2.847-3.189l2.38-.678c.846.972 1.91 1.623 3.064 1.623 1.155 0 2.218-.65 3.064-1.623z" transform="translate(-914 -345) translate(818 120) translate(0 225) translate(96)"/> <path fill="#929BA9" d="M16 15c2.21 0 4-2.79 4-5s-1.79-4-4-4-4 1.79-4 4 1.79 5 4 5z" transform="translate(-914 -345) translate(818 120) translate(0 225) translate(96)"/> </g> </g> </g> </g> </g> </svg> 