<svg xmlns="http://www.w3.org/2000/svg" width="32" height="32" viewBox="0 0 32 32"> <g fill="none" fill-rule="evenodd"> <g> <g> <g> <g> <path d="M14.282 0h3.436c4.028 0 6.188.557 8.143 1.603 1.956 1.046 3.49 2.58 4.536 4.536C31.443 8.094 32 10.254 32 14.282v3.436c0 4.028-.557 6.188-1.603 8.143-1.046 1.956-2.58 3.49-4.536 4.536C23.906 31.443 21.746 32 17.718 32h-3.436c-4.028 0-6.188-.557-8.143-1.603-1.956-1.046-3.49-2.58-4.536-4.536C.557 23.906 0 21.746 0 17.718v-3.436c0-4.028.557-6.188 1.603-8.143 1.046-1.956 2.58-3.49 4.536-4.536C8.094.557 10.254 0 14.282 0z" transform="translate(-914 -457) translate(818 120) translate(0 337) translate(96)"/> <path fill="#929BA9" d="M18.358 16.877l1.275.365c1.483.427 2.588 1.669 2.84 3.191l.11.66c.18 1.089-.558 2.119-1.647 2.3-.035.005-.069.01-.104.013l-1.353.153c-2.291.257-4.604.258-6.896.003l-1.413-.157c-1.098-.123-1.889-1.112-1.766-2.21.004-.035.008-.07.014-.105l.109-.657c.252-1.522 1.357-2.764 2.84-3.19l1.275-.366c.651.753 1.47 1.257 2.358 1.257.889 0 1.707-.504 2.358-1.257zM16 10c1.657 0 3 1.393 3 3.111C19 14.83 17.657 17 16 17s-3-2.17-3-3.889C13 11.393 14.343 10 16 10z" transform="translate(-914 -457) translate(818 120) translate(0 337) translate(96)"/> <path fill="#C1C9D4" d="M24.652 14.877l.79.229c1.102.32 1.922 1.247 2.107 2.38.16.977-.502 1.897-1.478 2.057l-.086.012-.548.062c-.714.081-1.431.127-2.15.136-.258-1.464-1.308-2.665-2.73-3.114l-1.53-.485c.38-.494.91-.867 1.532-1.048l.79-.229c.456.535 1.029.892 1.651.892.622 0 1.195-.357 1.652-.892zM23 10c1.105 0 2 .995 2 2.222C25 13.45 24.105 15 23 15s-2-1.55-2-2.778c0-1.227.895-2.222 2-2.222zM10.652 14.877l.79.229c.62.18 1.152.554 1.531 1.048l-1.53.485c-1.456.46-2.523 1.708-2.75 3.218l.02-.104c-.704-.01-1.407-.055-2.107-.133l-.59-.067c-.982-.11-1.688-.996-1.577-1.978l.012-.088c.185-1.134 1.005-2.06 2.108-2.381l.79-.229c.456.535 1.029.892 1.651.892.622 0 1.195-.357 1.652-.892zM9 10c1.105 0 2 .995 2 2.222C11 13.45 10.105 15 9 15s-2-1.55-2-2.778C7 10.995 7.895 10 9 10z" transform="translate(-914 -457) translate(818 120) translate(0 337) translate(96)"/> </g> </g> </g> </g> </g> </svg> 