<svg xmlns="http://www.w3.org/2000/svg" width="32" height="32" viewBox="0 0 32 32"> <g fill="none" fill-rule="evenodd"> <g> <g> <g> <g> <path d="M14.282 0h3.436c4.028 0 6.188.557 8.143 1.603 1.956 1.046 3.49 2.58 4.536 4.536C31.443 8.094 32 10.254 32 14.282v3.436c0 4.028-.557 6.188-1.603 8.143-1.046 1.956-2.58 3.49-4.536 4.536C23.906 31.443 21.746 32 17.718 32h-3.436c-4.028 0-6.188-.557-8.143-1.603-1.956-1.046-3.49-2.58-4.536-4.536C.557 23.906 0 21.746 0 17.718v-3.436c0-4.028.557-6.188 1.603-8.143 1.046-1.956 2.58-3.49 4.536-4.536C8.094.557 10.254 0 14.282 0z" transform="translate(-914 -289) translate(818 120) translate(0 169) translate(96)"/> <path fill="#C1C9D4" d="M16 4c6.627 0 12 5.373 12 12s-5.373 12-12 12S4 22.627 4 16 9.373 4 16 4zm-4 4c-2.21 0-4 1.79-4 4s1.79 4 4 4c.217 0 .43-.017.637-.05l-4.001 4c-.781.78-.781 2.047 0 2.828l.707.707c.781.781 2.048.781 2.829 0l3.844-3.845c-.01.119-.016.239-.016.36 0 2.21 1.79 4 4 4s4-1.79 4-4-1.79-4-4-4c-.121 0-.241.005-.36.016l3.138-3.137c.781-.781.781-2.048 0-2.829l-.707-.707c-.781-.78-2.047-.78-2.828 0l-3.294 3.294c.034-.207.051-.42.051-.637 0-2.21-1.79-4-4-4z" transform="translate(-914 -289) translate(818 120) translate(0 169) translate(96)"/> <path fill="#929BA9" d="M20 17c1.657 0 3 1.343 3 3s-1.343 3-3 3-3-1.343-3-3 1.343-3 3-3zm1.364-6.364c.39.39.39 1.024 0 1.414l-9.9 9.9c-.39.39-1.023.39-1.414 0-.39-.39-.39-1.024 0-1.414l9.9-9.9c.39-.39 1.023-.39 1.414 0zM20 18.5c-.828 0-1.5.672-1.5 1.5s.672 1.5 1.5 1.5 1.5-.672 1.5-1.5-.672-1.5-1.5-1.5zM12 9c1.657 0 3 1.343 3 3s-1.343 3-3 3-3-1.343-3-3 1.343-3 3-3zm0 1.5c-.828 0-1.5.672-1.5 1.5s.672 1.5 1.5 1.5 1.5-.672 1.5-1.5-.672-1.5-1.5-1.5z" transform="translate(-914 -289) translate(818 120) translate(0 169) translate(96)"/> </g> </g> </g> </g> </g> </svg> 