<svg width="32" height="32" viewBox="0 0 32 32" fill="none" xmlns="http://www.w3.org/2000/svg"> <path d="M0 12C0 5.37258 5.37258 0 12 0H20C26.6274 0 32 5.37258 32 12V20C32 26.6274 26.6274 32 20 32H12C5.37258 32 0 26.6274 0 20V12Z" fill="#EDF9FB"/> <path opacity="0.6" fill-rule="evenodd" clip-rule="evenodd" d="M11.8289 9H20.171C20.7018 9 21.2108 9.21099 21.5859 9.58649L24.648 12.6517C24.8734 12.8773 25 13.1831 25 13.502C25 13.777 24.777 14 24.502 14H21.0704C20.4017 14 19.7772 14.3342 19.4063 14.8906L18.5937 16.1094C18.2228 16.6658 17.5983 17 16.9296 17H15.0722C14.4039 17 13.7798 16.6662 13.4087 16.1104L12.5938 14.8896C12.2228 14.3338 11.5987 14 10.9304 14H7.49827C7.22308 14 7 13.7769 7 13.5017C7 13.1827 7.12667 12.8767 7.35218 12.651L10.4141 9.5864C10.7892 9.21095 11.2982 9 11.8289 9Z" fill="#1AB6D2"/> <path fill-rule="evenodd" clip-rule="evenodd" d="M8 15H9.92963C10.5983 15 11.2228 15.3342 11.5937 15.8906L12.4063 17.1094C12.7772 17.6658 13.4017 18 14.0704 18H17.9296C18.5983 18 19.2228 17.6658 19.5937 17.1094L20.4063 15.8906C20.7772 15.3342 21.4017 15 22.0704 15H24C24.5523 15 25 15.4477 25 16V20C25 21.6569 23.6569 23 22 23H10C8.34315 23 7 21.6569 7 20V16C7 15.4477 7.44772 15 8 15Z" fill="#1AB6D2"/> </svg> 