<svg width="32" height="32" viewBox="0 0 32 32" fill="none" xmlns="http://www.w3.org/2000/svg"> <path d="M0 12C0 5.37258 5.37258 0 12 0H20C26.6274 0 32 5.37258 32 12V20C32 26.6274 26.6274 32 20 32H12C5.37258 32 0 26.6274 0 20V12Z" fill="#AD63DA"/> <path opacity="0.6" fill-rule="evenodd" clip-rule="evenodd" d="M20.7151 6.02054L22.2849 6.92691C22.6019 7.10988 22.7935 7.45135 22.7846 7.81718L22.7316 10.0261C23.5317 10.927 24.1537 11.9897 24.5424 13.1589L26.4789 14.2157C26.8001 14.391 27 14.7277 27 15.0936V16.9064C27 17.2723 26.8001 17.609 26.4789 17.7843L24.5424 18.8411C24.1537 20.0104 23.5316 21.0731 22.7314 21.9741L22.7846 24.1828C22.7935 24.5487 22.6019 24.8901 22.2849 25.0731L20.7151 25.9795C20.3981 26.1624 20.0066 26.1577 19.6942 25.9671L17.8098 24.818C17.2252 24.9373 16.6199 25 16 25C15.3801 25 14.7748 24.9373 14.1902 24.818L12.3058 25.9671C11.9934 26.1577 11.6019 26.1624 11.2849 25.9795L9.71506 25.0731C9.39815 24.8901 9.20648 24.5487 9.21536 24.1828L9.26856 21.9741C8.46837 21.0731 7.84631 20.0104 7.45762 18.8411L5.52115 17.7843C5.19989 17.609 5 17.2723 5 16.9064V15.0936C5 14.7277 5.19989 14.391 5.52115 14.2157L7.45762 13.1589C7.84629 11.9897 8.46829 10.927 9.26841 10.0261L9.21536 7.81718C9.20648 7.45135 9.39815 7.10988 9.71506 6.92691L11.2849 6.02054C11.6019 5.83757 11.9934 5.84232 12.3058 6.03292L14.1902 7.18204C14.7748 7.06268 15.3801 7 16 7C16.6199 7 17.2252 7.06268 17.8098 7.18204L19.6942 6.03292C20.0066 5.84232 20.3981 5.83757 20.7151 6.02054ZM16 11C13.2386 11 11 13.2386 11 16C11 18.7614 13.2386 21 16 21C18.7614 21 21 18.7614 21 16C21 13.2386 18.7614 11 16 11Z" fill="white"/> <path d="M16 19C17.6569 19 19 17.6569 19 16C19 14.3431 17.6569 13 16 13C14.3431 13 13 14.3431 13 16C13 17.6569 14.3431 19 16 19Z" fill="white"/> </svg> 