<svg xmlns="http://www.w3.org/2000/svg" width="32" height="32" viewBox="0 0 32 32"> <g fill="none" fill-rule="evenodd"> <g> <g> <g> <g> <path d="M14.282 0h3.436c4.028 0 6.188.557 8.143 1.603 1.956 1.046 3.49 2.58 4.536 4.536C31.443 8.094 32 10.254 32 14.282v3.436c0 4.028-.557 6.188-1.603 8.143-1.046 1.956-2.58 3.49-4.536 4.536C23.906 31.443 21.746 32 17.718 32h-3.436c-4.028 0-6.188-.557-8.143-1.603-1.956-1.046-3.49-2.58-4.536-4.536C.557 23.906 0 21.746 0 17.718v-3.436c0-4.028.557-6.188 1.603-8.143 1.046-1.956 2.58-3.49 4.536-4.536C8.094.557 10.254 0 14.282 0z" transform="translate(-914 -513) translate(818 120) translate(0 393) translate(96)"/> <g> <path fill="#C1C9D4" d="M3.447 3c2.737 0 3.006 2.918 4.088 4.844-.266.491-.417 1.056-.417 1.656 0 1.396.818 2.601 2 3.163V15h-9C-.386 7 .723 3 3.447 3zm12.94 4.876c2.298 0 3.542 2.375 3.731 7.124h-8l.001-2.337c1.182-.562 2-1.767 2-3.163 0-.387-.063-.759-.18-1.106l.051-.03c.502-.273 1.144-.488 2.397-.488z" transform="translate(-914 -513) translate(818 120) translate(0 393) translate(96) translate(5.882 8)"/> <path fill="#929BA9" d="M11.118 0v7.05c1.142.232 2 1.24 2 2.45 0 1.21-.858 2.218-2 2.45V15h-1v-3.05c-1.14-.231-2-1.24-2-2.45 0-1.21.86-2.219 2-2.45V0h1z" transform="translate(-914 -513) translate(818 120) translate(0 393) translate(96) translate(5.882 8)"/> </g> </g> </g> </g> </g> </g> </svg> 