<svg xmlns="http://www.w3.org/2000/svg" width="32" height="32" viewBox="0 0 32 32"> <g fill="none" fill-rule="evenodd"> <g> <g> <g> <g> <path d="M14.282 0h3.436c4.028 0 6.188.557 8.143 1.603 1.956 1.046 3.49 2.58 4.536 4.536C31.443 8.094 32 10.254 32 14.282v3.436c0 4.028-.557 6.188-1.603 8.143-1.046 1.956-2.58 3.49-4.536 4.536C23.906 31.443 21.746 32 17.718 32h-3.436c-4.028 0-6.188-.557-8.143-1.603-1.956-1.046-3.49-2.58-4.536-4.536C.557 23.906 0 21.746 0 17.718v-3.436c0-4.028.557-6.188 1.603-8.143 1.046-1.956 2.58-3.49 4.536-4.536C8.094.557 10.254 0 14.282 0z" transform="translate(-914 -177) translate(818 120) translate(0 57) translate(96)"/> <g> <g> <path fill="#C1C9D4" d="M4.313.083c1.715.201 3.095 2.212 3.466 4.325 2.246.49 3.928 2.491 3.928 4.885v2h-10v-2c0-2.426 1.727-4.448 4.019-4.904-.313-1.197-1.065-2.252-1.647-2.32-.548-.064-.94-.561-.876-1.11.064-.548.561-.94 1.11-.876z" transform="translate(-914 -177) translate(818 120) translate(0 57) translate(96) translate(4.086 4.379) rotate(-45 11.414 4.464)"/> <path fill="#929BA9" d="M11.707 12.293c.552 0 1 .448 1 1s-.448 1-1 1h-1v3c0 .552-.448 1-1 1s-1-.448-1-1v-3h-4v3c0 .552-.448 1-1 1s-1-.448-1-1v-3h-1c-.552 0-1-.448-1-1s.448-1 1-1h10z" transform="translate(-914 -177) translate(818 120) translate(0 57) translate(96) translate(4.086 4.379) rotate(-45 11.414 4.464)"/> </g> </g> </g> </g> </g> </g> </g> </svg> 