<svg xmlns="http://www.w3.org/2000/svg" width="32" height="32" viewBox="0 0 32 32"> <g fill="none" fill-rule="evenodd"> <g> <g> <g> <g> <path d="M14.282 0h3.436c4.028 0 6.188.557 8.143 1.603 1.956 1.046 3.49 2.58 4.536 4.536C31.443 8.094 32 10.254 32 14.282v3.436c0 4.028-.557 6.188-1.603 8.143-1.046 1.956-2.58 3.49-4.536 4.536C23.906 31.443 21.746 32 17.718 32h-3.436c-4.028 0-6.188-.557-8.143-1.603-1.956-1.046-3.49-2.58-4.536-4.536C.557 23.906 0 21.746 0 17.718v-3.436c0-4.028.557-6.188 1.603-8.143 1.046-1.956 2.58-3.49 4.536-4.536C8.094.557 10.254 0 14.282 0z" transform="translate(-914 -233) translate(818 120) translate(0 113) translate(96)"/> <path fill="#C1C9D4" d="M8 15h16v6c0 1.657-1.343 3-3 3H11c-1.657 0-3-1.343-3-3v-6z" transform="translate(-914 -233) translate(818 120) translate(0 113) translate(96)"/> <path fill="#929BA9" d="M13 7c.552 0 1 .448 1 1v1h4V8c0-.552.448-1 1-1h1c.552 0 1 .448 1 1v1c1.657 0 3 1.343 3 3v1H8v-1c0-1.657 1.343-3 3-3V8c0-.552.448-1 1-1h1z" transform="translate(-914 -233) translate(818 120) translate(0 113) translate(96)"/> </g> </g> </g> </g> </g> </svg> 