<svg xmlns="http://www.w3.org/2000/svg" width="32" height="32" viewBox="0 0 32 32"> <g fill="none" fill-rule="evenodd"> <g> <g> <g> <g> <path d="M14.282 0h3.436c4.028 0 6.188.557 8.143 1.603 1.956 1.046 3.49 2.58 4.536 4.536C31.443 8.094 32 10.254 32 14.282v3.436c0 4.028-.557 6.188-1.603 8.143-1.046 1.956-2.58 3.49-4.536 4.536C23.906 31.443 21.746 32 17.718 32h-3.436c-4.028 0-6.188-.557-8.143-1.603-1.956-1.046-3.49-2.58-4.536-4.536C.557 23.906 0 21.746 0 17.718v-3.436c0-4.028.557-6.188 1.603-8.143 1.046-1.956 2.58-3.49 4.536-4.536C8.094.557 10.254 0 14.282 0z" transform="translate(-914 -569) translate(818 120) translate(0 449) translate(96)"/> <g> <path fill="#929BA9" d="M8.535 13.745l-3.032 1.593c-.488.257-1.093.07-1.35-.42-.102-.194-.138-.417-.1-.634l.578-3.375c.056-.325-.052-.656-.287-.885L1.89 7.634c-.395-.386-.403-1.02-.018-1.415.154-.157.355-.26.573-.292l3.389-.492c.325-.047.607-.252.753-.547l1.515-3.071c.245-.495.844-.699 1.34-.454.197.097.356.257.454.454l1.515 3.071c.146.295.428.5.753.547l3.39.492c.546.08.925.587.845 1.134-.031.218-.134.419-.291.572l-2.453 2.39c-.235.23-.343.561-.287.886l.579 3.375c.093.544-.273 1.061-.817 1.155-.217.037-.44.002-.634-.1l-3.032-1.594c-.291-.154-.639-.154-.93 0z" transform="translate(-914 -569) translate(818 120) translate(0 449) translate(96) translate(7 5)"/> <path fill="#C1C9D4" d="M10 17c.552 0 1 .448 1 1v3H7v-3c0-.552.448-1 1-1h2zm6 1c.552 0 1 .448 1 1v2h-4v-2c0-.552.448-1 1-1h2zM4 19c.552 0 1 .448 1 1v1H1v-1c0-.552.448-1 1-1h2z" transform="translate(-914 -569) translate(818 120) translate(0 449) translate(96) translate(7 5)"/> </g> </g> </g> </g> </g> </g> </svg> 