<svg xmlns="http://www.w3.org/2000/svg" width="32" height="32" viewBox="0 0 32 32"> <g fill="none" fill-rule="evenodd"> <g> <g> <g> <g> <path d="M14.282 0h3.436c4.028 0 6.188.557 8.143 1.603 1.956 1.046 3.49 2.58 4.536 4.536C31.443 8.094 32 10.254 32 14.282v3.436c0 4.028-.557 6.188-1.603 8.143-1.046 1.956-2.58 3.49-4.536 4.536C23.906 31.443 21.746 32 17.718 32h-3.436c-4.028 0-6.188-.557-8.143-1.603-1.956-1.046-3.49-2.58-4.536-4.536C.557 23.906 0 21.746 0 17.718v-3.436c0-4.028.557-6.188 1.603-8.143 1.046-1.956 2.58-3.49 4.536-4.536C8.094.557 10.254 0 14.282 0z" transform="translate(-914 -625) translate(818 120) translate(0 505) translate(96)"/> <g transform="translate(-914 -625) translate(818 120) translate(0 505) translate(96) translate(5 5)"> <path fill="#C1C9D4" d="M15.715 1.02l1.57.907c.317.183.509.524.5.89l-.053 2.21c.8.9 1.422 1.963 1.81 3.132l1.937 1.057c.321.175.521.512.521.878v1.812c0 .366-.2.703-.521.878l-1.937 1.057c-.388 1.17-1.01 2.232-1.81 3.133l.053 2.209c.009.366-.183.707-.5.89l-1.57.906c-.317.183-.708.179-1.02-.012l-1.885-1.149c-.585.12-1.19.182-1.81.182-.62 0-1.225-.063-1.81-.182l-1.884 1.15c-.313.19-.704.194-1.021.011l-1.57-.906c-.317-.183-.509-.524-.5-.89l.054-2.209c-.8-.9-1.423-1.964-1.811-3.133L.52 12.784C.2 12.61 0 12.272 0 11.906v-1.812c0-.366.2-.703.521-.878l1.937-1.057c.388-1.17 1.01-2.232 1.81-3.133l-.053-2.209c-.009-.366.183-.707.5-.89l1.57-.906c.317-.183.708-.179 1.02.012L9.19 2.182C9.775 2.062 10.38 2 11 2c.62 0 1.225.063 1.81.182l1.884-1.15c.313-.19.704-.194 1.021-.011zM11 6c-2.761 0-5 2.239-5 5s2.239 5 5 5 5-2.239 5-5-2.239-5-5-5z"/> <circle cx="11" cy="11" r="3" fill="#929BA9"/> </g> </g> </g> </g> </g> </g> </svg> 