<svg width="32" height="32" viewBox="0 0 32 32" fill="none" xmlns="http://www.w3.org/2000/svg"> <path d="M0 12C0 5.37258 5.37258 0 12 0H20C26.6274 0 32 5.37258 32 12V20C32 26.6274 26.6274 32 20 32H12C5.37258 32 0 26.6274 0 20V12Z" fill="#F4FAF2"/> <path opacity="0.6" fill-rule="evenodd" clip-rule="evenodd" d="M19.0644 15.8768L21.444 16.5554C22.9288 16.9797 24.0368 18.2207 24.2907 19.7439L24.653 21.9177C24.8346 23.0073 24.0986 24.0377 23.009 24.2193C22.9735 24.2252 22.9379 24.2302 22.9021 24.2342L20.3474 24.5193C17.4851 24.8388 14.5962 24.8402 11.7336 24.5236L9.10036 24.2323C8.00249 24.1109 7.21093 23.1224 7.33237 22.0246C7.3364 21.9881 7.34143 21.9518 7.34746 21.9156L7.70941 19.7439C7.96328 18.2207 9.07128 16.9797 10.5561 16.5554L12.9357 15.8768C13.7821 16.8493 14.8454 17.5 16.0001 17.5C17.1548 17.5 18.218 16.8493 19.0644 15.8768Z" fill="#81C479"/> <path fill-rule="evenodd" clip-rule="evenodd" d="M16 15C18.2091 15 20 12.2091 20 10C20 7.79086 18.2091 6 16 6C13.7909 6 12 7.79086 12 10C12 12.2091 13.7909 15 16 15Z" fill="#81C479"/> </svg> 