<svg width="32" height="32" viewBox="0 0 32 32" fill="none" xmlns="http://www.w3.org/2000/svg"> <path d="M0 12C0 5.37258 5.37258 0 12 0H20C26.6274 0 32 5.37258 32 12V20C32 26.6274 26.6274 32 20 32H12C5.37258 32 0 26.6274 0 20V12Z" fill="#F4FAF2"/> <path opacity="0.6" fill-rule="evenodd" clip-rule="evenodd" d="M16 4C22.6274 4 28 9.37258 28 16C28 22.6274 22.6274 28 16 28C9.37258 28 4 22.6274 4 16C4 9.37258 9.37258 4 16 4ZM12 8C9.79086 8 8 9.79086 8 12C8 14.2091 9.79086 16 12 16C12.217 16 12.4299 15.9827 12.6375 15.9495L8.63604 19.9497C7.85499 20.7308 7.85499 21.9971 8.63604 22.7782L9.34315 23.4853C10.1242 24.2663 11.3905 24.2663 12.1716 23.4853L16.016 19.6401C16.0054 19.7586 16 19.8787 16 20C16 22.2091 17.7909 24 20 24C22.2091 24 24 22.2091 24 20C24 17.7909 22.2091 16 20 16C19.8787 16 19.7586 16.0054 19.6401 16.016L22.7782 12.8787C23.5592 12.0976 23.5592 10.8313 22.7782 10.0503L22.0711 9.34315C21.29 8.5621 20.0237 8.5621 19.2426 9.34315L15.9495 12.6375C15.9827 12.4299 16 12.217 16 12C16 9.79086 14.2091 8 12 8Z" fill="#2BA062"/> <path fill-rule="evenodd" clip-rule="evenodd" d="M20 17C21.6569 17 23 18.3431 23 20C23 21.6569 21.6569 23 20 23C18.3431 23 17 21.6569 17 20C17 18.3431 18.3431 17 20 17ZM21.364 10.636C21.7545 11.0266 21.7545 11.6597 21.364 12.0503L11.4645 21.9497C11.0739 22.3403 10.4408 22.3403 10.0503 21.9497C9.65973 21.5592 9.65973 20.9261 10.0503 20.5355L19.9497 10.636C20.3403 10.2455 20.9734 10.2455 21.364 10.636ZM20 18.5C19.1716 18.5 18.5 19.1716 18.5 20C18.5 20.8284 19.1716 21.5 20 21.5C20.8284 21.5 21.5 20.8284 21.5 20C21.5 19.1716 20.8284 18.5 20 18.5ZM12 9C13.6569 9 15 10.3431 15 12C15 13.6569 13.6569 15 12 15C10.3431 15 9 13.6569 9 12C9 10.3431 10.3431 9 12 9ZM12 10.5C11.1716 10.5 10.5 11.1716 10.5 12C10.5 12.8284 11.1716 13.5 12 13.5C12.8284 13.5 13.5 12.8284 13.5 12C13.5 11.1716 12.8284 10.5 12 10.5Z" fill="#2BA062"/> </svg> 