<svg xmlns="http://www.w3.org/2000/svg" width="32" height="32" viewBox="0 0 32 32"> <g fill="none" fill-rule="evenodd"> <g> <g> <g> <g> <path d="M14.282 0h3.436c4.028 0 6.188.557 8.143 1.603 1.956 1.046 3.49 2.58 4.536 4.536C31.443 8.094 32 10.254 32 14.282v3.436c0 4.028-.557 6.188-1.603 8.143-1.046 1.956-2.58 3.49-4.536 4.536C23.906 31.443 21.746 32 17.718 32h-3.436c-4.028 0-6.188-.557-8.143-1.603-1.956-1.046-3.49-2.58-4.536-4.536C.557 23.906 0 21.746 0 17.718v-3.436c0-4.028.557-6.188 1.603-8.143 1.046-1.956 2.58-3.49 4.536-4.536C8.094.557 10.254 0 14.282 0z" transform="translate(-914 -401) translate(818 120) translate(0 281) translate(96)"/> <path fill="#C1C9D4" d="M11.829 9h8.342c.53 0 1.04.211 1.415.586l3.062 3.066c.225.225.352.531.352.85 0 .275-.223.498-.498.498H21.07c-.668 0-1.293.334-1.664.89l-.812 1.22c-.371.556-.996.89-1.664.89h-1.858c-.668 0-1.292-.334-1.663-.89l-.815-1.22c-.371-.556-.995-.89-1.664-.89H7.498C7.223 14 7 13.777 7 13.502c0-.32.127-.625.352-.851l3.062-3.065C10.79 9.211 11.298 9 11.83 9z" transform="translate(-914 -401) translate(818 120) translate(0 281) translate(96)"/> <path fill="#929BA9" d="M8 15h1.93c.668 0 1.293.334 1.664.89l.812 1.22c.371.556.996.89 1.664.89h3.86c.668 0 1.293-.334 1.664-.89l.812-1.22c.371-.556.996-.89 1.664-.89H24c.552 0 1 .448 1 1v4c0 1.657-1.343 3-3 3H10c-1.657 0-3-1.343-3-3v-4c0-.552.448-1 1-1z" transform="translate(-914 -401) translate(818 120) translate(0 281) translate(96)"/> </g> </g> </g> </g> </g> </svg> 