<svg width="32" height="32" viewBox="0 0 32 32" fill="none" xmlns="http://www.w3.org/2000/svg"> <path d="M0 12C0 5.37258 5.37258 0 12 0H20C26.6274 0 32 5.37258 32 12V20C32 26.6274 26.6274 32 20 32H12C5.37258 32 0 26.6274 0 20V12Z" fill="#EEF4FE"/> <path opacity="0.6" fill-rule="evenodd" clip-rule="evenodd" d="M8 15H24V21C24 22.6569 22.6569 24 21 24H11C9.34315 24 8 22.6569 8 21V15Z" fill="#2477F1"/> <path fill-rule="evenodd" clip-rule="evenodd" d="M13 7C13.5523 7 14 7.44772 14 8V9H18V8C18 7.44772 18.4477 7 19 7H20C20.5523 7 21 7.44772 21 8V9C22.6569 9 24 10.3431 24 12V13H8V12C8 10.3431 9.34315 9 11 9V8C11 7.44772 11.4477 7 12 7H13Z" fill="#2477F1"/> </svg> 