<svg width="32" height="32" viewBox="0 0 32 32" fill="none" xmlns="http://www.w3.org/2000/svg"> <path d="M0 12C0 5.37258 5.37258 0 12 0H20C26.6274 0 32 5.37258 32 12V20C32 26.6274 26.6274 32 20 32H12C5.37258 32 0 26.6274 0 20V12Z" fill="#FEF8EF"/> <path fill-rule="evenodd" clip-rule="evenodd" d="M15.5347 18.7447L12.5034 20.3383C12.0146 20.5953 11.41 20.4073 11.153 19.9185C11.0506 19.7238 11.0153 19.5009 11.0525 19.2841L11.6314 15.9088C11.687 15.5844 11.5795 15.2534 11.3438 15.0236L8.89147 12.6332C8.49598 12.2477 8.48789 11.6146 8.87339 11.2191C9.0269 11.0616 9.22804 10.9591 9.44568 10.9275L12.8347 10.435C13.1604 10.3877 13.442 10.1831 13.5877 9.88799L15.1033 6.817C15.3477 6.32174 15.9473 6.1184 16.4426 6.36283C16.6398 6.46016 16.7994 6.61978 16.8968 6.817L18.4124 9.88799C18.5581 10.1831 18.8396 10.3877 19.1653 10.435L22.5544 10.9275C23.1009 11.0069 23.4796 11.5143 23.4002 12.0609C23.3686 12.2785 23.2661 12.4797 23.1086 12.6332L20.6562 15.0236C20.4206 15.2534 20.313 15.5844 20.3687 15.9088L20.9476 19.2841C21.0409 19.8284 20.6753 20.3454 20.131 20.4388C19.9142 20.4759 19.6913 20.4406 19.4966 20.3383L16.4654 18.7447C16.174 18.5915 15.826 18.5915 15.5347 18.7447Z" fill="#F3A52E"/> <path opacity="0.6" fill-rule="evenodd" clip-rule="evenodd" d="M17 22C17.5523 22 18 22.4477 18 23V26H14V23C14 22.4477 14.4477 22 15 22H17ZM23 23C23.5523 23 24 23.4477 24 24V26H20V24C20 23.4477 20.4477 23 21 23H23ZM11 24C11.5523 24 12 24.4477 12 25V26H8V25C8 24.4477 8.44772 24 9 24H11Z" fill="#F3A52E"/> </svg> 