<svg width="24" height="24" viewBox="0 0 24 24" fill="none" xmlns="http://www.w3.org/2000/svg"> <path fill-rule="evenodd" clip-rule="evenodd" d="M10.2929 5.29289C10.6834 4.90237 11.3166 4.90237 11.7071 5.29289C12.0976 5.68342 12.0976 6.31658 11.7071 6.70711L6.41421 12L11.7071 17.2929C12.0976 17.6834 12.0976 18.3166 11.7071 18.7071C11.3166 19.0976 10.6834 19.0976 10.2929 18.7071L4.29289 12.7071C3.90237 12.3166 3.90237 11.6834 4.29289 11.2929L10.2929 5.29289ZM19 16C19.5523 16 20 16.4477 20 17C20 17.5523 19.5523 18 19 18H15C14.4477 18 14 17.5523 14 17C14 16.4477 14.4477 16 15 16H19ZM19 11C19.5523 11 20 11.4477 20 12C20 12.5523 19.5523 13 19 13H10C9.44772 13 9 12.5523 9 12C9 11.4477 9.44772 11 10 11H19ZM19 6C19.5523 6 20 6.44772 20 7C20 7.55228 19.5523 8 19 8H15C14.4477 8 14 7.55228 14 7C14 6.44772 14.4477 6 15 6H19Z" fill="#232426"/> </svg> 