<?xml version="1.0" encoding="UTF-8"?> <svg width="76px" height="76px" viewBox="0 0 76 76" version="1.1" xmlns="http://www.w3.org/2000/svg" xmlns:xlink="http://www.w3.org/1999/xlink"> <title>icon</title> <defs> <radialGradient cx="44.9358903%" cy="34.2799277%" fx="44.9358903%" fy="34.2799277%" r="46.8321167%" gradientTransform="translate(0.449359,0.342799),scale(0.448518,1.000000),rotate(96.815873),scale(1.000000,2.806754),translate(-0.449359,-0.342799)" id="radialGradient-1"> <stop stop-color="#FFFFFF" stop-opacity="0.5" offset="0%"></stop> <stop stop-color="#000000" stop-opacity="0.5" offset="100%"></stop> </radialGradient> <path d="M5.74477732,1.67569774 C6.50255684,2.25657158 6.91661804,2.97893992 6.98696093,3.84280275 C7.703209,7.41479001 19.9326701,14.616464 28.6487663,15.3298205 C34.4594971,15.8053915 41.3470053,14.5991688 49.3112907,11.7111524 L49.3112907,11.7111524 L51.0476059,11.3123579 C51.9055718,11.1153015 52.6745709,10.6407208 53.2353956,9.96218388 L56.8075537,5.64026066 C56.9004413,5.52787681 56.96763,5.39654036 57.004412,5.25545417 L57.54273,3.19060594 C57.6108057,2.92948525 57.7815229,2.70696042 58.0161025,2.57357869 L60.9314974,0.915888513 C61.2324207,0.744783861 61.600433,0.741480414 61.9043794,0.907155478 L64.4313547,2.28455883 C64.9162794,2.54888151 65.0951127,3.15626653 64.83079,3.64119122 C64.8245681,3.65260598 64.8181241,3.66389832 64.8114618,3.67506181 L62.9168837,6.84966262 C62.7364408,7.15201706 62.4102829,7.33719348 62.058178,7.33719348 L61.0437701,7.33719348 C60.7460547,7.33719348 60.4638204,7.46984536 60.2738398,7.69906549 L57.6317393,10.8868794 C57.1943943,11.4145559 56.9509099,12.0760715 56.9417955,12.7613671 C56.9045805,15.5595058 56.7140661,17.6495549 56.3702523,19.0315143 C55.7919333,21.3560675 45.878335,32.9355857 25.0646344,29.219597 C14.1828161,27.2768039 6.69645676,22.8471256 2.60555637,15.9305623 C0.698995341,12.7071046 0.275220596,8.81800652 1.44279397,5.25957612 L1.78498158,4.21668598 L1.78498158,4.21668598 L1.91112358,3.04424051 C1.95395814,2.64610841 2.23016168,2.31191673 2.61310577,2.19487917 L4.84412042,1.51302371 C5.15299315,1.41861545 5.48844455,1.47920654 5.74477732,1.67569774 Z" id="path-2"></path> <linearGradient x1="62.1009509%" y1="50%" x2="37.0883247%" y2="78.3996798%" id="linearGradient-4"> <stop stop-color="#FFFFFF" offset="0%"></stop> <stop stop-color="#FFFFFF" stop-opacity="0" offset="100%"></stop> </linearGradient> <linearGradient x1="61.808833%" y1="23.4698599%" x2="18.9981991%" y2="79.1375012%" id="linearGradient-5"> <stop stop-color="#FFFFFF" stop-opacity="0.5" offset="0%"></stop> <stop stop-color="#000000" stop-opacity="0.5" offset="100%"></stop> </linearGradient> <path d="M57.176096,3.6682934 C58.7864089,5.10487189 60.3069022,5.89105787 61.7375759,6.02685134 L64.7641293,0.617329755 L59.585385,-3 C56.3688795,0.00895044653 55.5657832,2.23171491 57.176096,3.6682934 Z" id="path-6"></path> </defs> <g id="💎-Icons" stroke="none" stroke-width="1" fill="none" fill-rule="evenodd"> <g id="Artboard" transform="translate(-186.000000, -172.000000)"> <g id="Group" transform="translate(186.000000, 172.000000)"> <g id="Group-2" transform="translate(7.000000, 45.000000)"> <g id="Path-124"> <mask id="mask-3" fill="white"> <use xlink:href="#path-2"></use> </mask> <g id="Path-123"> <use fill="#FEDA63" xlink:href="#path-2"></use> <use fill="url(#radialGradient-1)" style="mix-blend-mode: overlay;" xlink:href="#path-2"></use> </g> <path d="M0.836113495,1.98884096 C1.20225864,1.87349974 1.6124045,1.89783775 1.97976608,2.08919387 C4.00321071,3.94952992 4.82857987,5.30000932 4.92922657,6.35681008 C5.43959275,8.80865866 8.32752819,13.9757288 13.8185423,17.6838107 C17.4305904,20.1230268 22.1740404,21.9287146 28.1267328,21.9287146 C37.6207263,21.9287146 44.5270609,20.691168 48.8294115,18.1712331 C49.2981981,17.8966661 49.7237138,17.5541533 50.0921019,17.1548563 L50.0921019,17.1548563 L54.2293827,12.6704442 C54.6720642,12.1906204 55.2138464,11.8128619 55.8171352,11.5633815 L55.8171352,11.5633815 L58.205704,10.5756272 L59.0826424,8.02186765 C59.1859933,7.62949631 59.4438932,7.29573216 59.7974964,7.09673095 L59.7974964,7.09673095 L63.3492601,5.09786519 C63.7977198,4.8454805 64.344252,4.84060127 64.7971463,5.084939 L64.7971463,5.084939 L67.9795902,6.80187643 C68.3441347,6.99854921 68.5944504,7.32436386 68.7044617,7.69214642 C68.8156291,8.06379365 68.7835281,8.47829543 68.5812524,8.8457008 L68.5812524,8.8457008 L66.2088784,12.7824566 C65.9374119,13.2326782 65.4500521,13.5079172 64.9243206,13.5079172 L64.9243206,13.5079172 L63.5581113,13.5079172 L59.9323219,17.5590368 C59.5619358,18.001348 59.3559258,18.5581474 59.3492218,19.1350184 C59.3101182,22.4998565 59.0788333,25.005813 58.6644402,26.6544235 C58.2234791,28.4087319 54.2670655,35.643216 44.9481222,39.4981492 C39.7185865,41.6614321 32.7971102,42.7617018 23.8656132,41.1834259 C16.6659013,39.911172 10.7911604,37.5880668 6.23533604,34.2271377 C1.65232226,30.8461504 -1.60229834,26.4149851 -3.52693138,20.9324552 C-4.51620963,18.114376 -4.5430473,15.0477912 -3.60323922,12.2128305 L-3.60323922,12.2128305 L-2.74021288,9.60948424 L-2.52656446,7.64401529 L-0.0435338304,2.7265628 C0.147824346,2.35920247 0.469968538,2.10418213 0.836113495,1.98884096 Z" id="Path-123" stroke="#FFFFFF" fill="#000000" opacity="0.0794038318" mask="url(#mask-3)"></path> <polygon id="Path-2" fill="url(#linearGradient-4)" style="mix-blend-mode: overlay;" mask="url(#mask-3)" points="52 4.69309603 57.9115809 13.0004121 62.6364866 10.3213358 55.5620876 0"></polygon> <path d="M-2.81894651,6.97243649 L-2.89715055,7.1413139 C-2.96733672,7.31346122 -3.01329438,7.49484116 -3.03344958,7.68025989 L-3.231,9.502 L-4.07780353,12.0553861 C-5.00921827,14.8650281 -5.02614352,17.8975884 -4.12614839,20.7174528 C0.118327543,34.0162239 8.80000132,39.0289432 23.7786067,41.6757976 C34.8118291,43.6254673 43.715037,41.7273476 50.4998707,37.0551378 C55.1104907,33.8801471 58.5013751,29.3542219 59.149356,26.7763115 C59.4510802,25.5759397 59.654038,23.9728907 59.7621467,21.9583626 L59.8026833,21.0697751 C59.8142674,20.7651646 59.8239272,20.4521309 59.8316742,20.1306484 L59.8491881,19.1408286 C59.8545512,18.6793311 60.0193597,18.2338926 60.315667,17.8800453 L63.5581113,14.0079172 L64.9243206,14.0079172 C65.6252959,14.0079172 66.275109,13.6409319 66.6370643,13.0406363 L68.9801188,9.15472796 L69.0159419,9.09254562 C69.5520123,8.09951038 69.1891139,6.88629305 68.2169952,6.36183229 L65.0345513,4.64489487 C64.4306923,4.31911122 63.7019827,4.32561686 63.1040364,4.66212978 L59.5522727,6.66099554 C59.0808018,6.92633049 58.7369353,7.37134935 58.599134,7.89451115 L58.0146304,10.1135764 L55.6260615,11.1013308 C54.9557407,11.3785312 54.3537604,11.7982629 53.8618921,12.3314005 L50.0545127,16.4582313 C49.5707975,16.9825318 48.9804951,17.3972562 48.3232502,17.6745511 C41.1731733,20.6912449 34.4701497,21.9392949 28.2074745,21.4319795 C23.8457891,21.078656 19.2861516,21.0262882 13.9274196,16.4107835 L13.6286755,16.1515207 L13.0255872,15.6161281 L12.4352177,15.0761625 L11.8589269,14.5334351 L11.2980745,13.9897571 C11.2059612,13.8991655 11.1145479,13.8086097 11.0238627,13.7181276 L10.4887178,13.1764197 L9.97241087,12.6382892 C9.8880051,12.5489995 9.80444091,12.4599344 9.72174663,12.3711315 L9.2362465,11.8417631 C9.07804384,11.6665572 8.92354746,11.4927023 8.77298399,11.3205001 L8.33331895,10.8091537 C8.19084794,10.6405589 8.05253648,10.4739187 7.91861121,10.3095351 L7.5302206,9.82345545 C7.46775747,9.74367105 7.40644754,9.66452624 7.34631916,9.58605876 L6.99995392,9.12368362 C6.77879823,8.82125462 6.57745369,8.53087027 6.39773339,8.25494552 L6.14459776,7.85220494 C5.78990151,7.26526672 5.54926743,6.75764297 5.44334796,6.35684128 L5.42,6.261 L5.43019262,6.34672151 C5.32368535,5.05211597 4.38861908,3.63049707 2.674334,1.97913173 C2.5365482,1.84640311 2.38043084,1.73413112 2.21075415,1.64574769 C1.23112321,1.13546467 0.023309751,1.51594472 -0.486978669,2.49557216 L-2.81894651,6.97243649 Z M1.74877802,2.53264005 C1.83361623,2.57683169 1.91167478,2.6329676 1.98056757,2.6993318 C3.53450131,4.19623121 4.35216536,5.43935879 4.43355971,6.42871455 C4.55820621,7.04397656 4.96755576,7.87912646 5.60768472,8.85774357 L5.89599784,9.28571181 L6.21162639,9.72991066 L6.55362711,10.1890033 L6.92105672,10.661653 L7.31297195,11.1465228 C7.38027921,11.2282785 7.44856742,11.3104877 7.5178169,11.3931225 L7.94469192,11.8938162 L8.39369439,12.403388 L8.86388104,12.9205011 C8.94395842,13.0072408 9.02487918,13.0942391 9.10662365,13.181468 L9.60681792,13.7073867 L10.1258382,14.2375048 L10.6627412,14.7704855 L11.2165836,15.3049919 C11.3102499,15.3941292 11.4045827,15.4832743 11.4995624,15.5723995 L12.0770454,16.106688 C12.1745339,16.1956219 12.2726299,16.2844801 12.3713138,16.3732347 L12.970315,16.9042976 C13.0712719,16.9925267 13.1727775,17.0805966 13.2748119,17.1684795 L13.893209,17.6933088 C13.9972806,17.780332 14.1018419,17.8671123 14.2068732,17.9536221 L14.8425437,18.4692101 C14.9493764,18.5545259 15.0566397,18.6395154 15.1643141,18.7241507 L15.8151357,19.2274896 C15.9243757,19.3105968 16.0339874,19.3932941 16.1439511,19.4755537 L16.8078015,19.9636357 C16.919095,20.0440329 17.0307013,20.1239368 17.1426007,20.2033193 L17.8173574,20.6731366 L18.498206,21.1291063 C18.612136,21.203873 18.7262806,21.278007 18.84062,21.3514806 L19.5288377,21.7841725 C22.749966,23.7643325 25.0930608,22.1829684 28.1267328,22.4287146 C34.5589742,22.9497659 41.4207213,21.6721628 48.7119741,18.5959054 C49.5006729,18.2631495 50.2090367,17.7654782 50.7894939,17.1363188 L54.5968733,13.0094879 C54.990368,12.5829779 55.4719522,12.2471926 56.0082089,12.0254322 L58.3967777,11.0376779 C58.68564,10.9182235 58.902027,10.6705666 58.981647,10.3682895 L59.5661507,8.14922416 C59.6350513,7.88764326 59.8069846,7.66513383 60.04272,7.53246636 L63.5944838,5.5336006 C63.8934569,5.36534414 64.2578117,5.36209131 64.5597412,5.52498314 L67.7421851,7.24192057 C68.2282444,7.50415094 68.4096937,8.11075961 68.1474633,8.59681894 L65.7806925,12.5242768 C65.5997148,12.8244246 65.2748082,13.0079172 64.9243206,13.0079172 L63.5581113,13.0079172 C63.2621652,13.0079172 62.9814196,13.1390037 62.7914182,13.3659034 L59.5489767,17.2380282 C59.104513,17.7688023 58.8573003,18.4369622 58.8492556,19.1292081 C58.8434814,19.6260685 58.8335504,20.1039247 58.8194626,20.5627769 L58.7857443,21.4551424 C58.7792009,21.5996468 58.7721956,21.7420397 58.7647284,21.882321 L58.7143827,22.6986702 C58.705068,22.8305052 58.6952915,22.9602287 58.685053,23.0878406 L58.6180799,23.8281734 C58.5093065,24.9006643 58.3631213,25.8021184 58.1795244,26.5325356 L58.1566789,26.6170775 L58.0954315,26.8089085 L58.013181,27.0297436 C57.9977049,27.0688781 57.9813406,27.1091548 57.9640816,27.1505405 L57.8497384,27.4118987 C57.8288743,27.4575881 57.8071024,27.5043203 57.7844161,27.5520622 L57.6372745,27.8503638 C57.6109048,27.9020116 57.5836077,27.9546027 57.5553767,28.0081041 L57.374731,28.3397694 L57.1713573,28.6916886 C57.1355503,28.7519413 57.0987832,28.8129715 57.0610494,28.8747463 L56.8229956,29.2540632 C56.7813694,29.3186833 56.7387634,29.3839815 56.6951713,29.4499248 L56.4217317,29.8530599 L56.1243095,30.2700851 C55.9179642,30.5523783 55.6954215,30.842871 55.4562631,31.1394418 L55.0850117,31.5885915 C50.6071381,36.8756682 40.9767046,43.6993632 23.9526197,40.6910542 C9.33009314,38.1071222 0.95472227,33.3479044 -3.17349294,20.4134009 C-4.00920261,17.7949556 -3.99348659,14.9790066 -3.12860133,12.3700528 L-2.24888524,9.7163615 L-2.03930569,7.78832432 C-2.02586889,7.66471183 -1.98949656,7.54468938 -1.93205415,7.43441262 L0.399911009,2.95755344 C0.655055404,2.46773936 1.25896246,2.2774985 1.74877802,2.53264005 Z" id="Path-123" fill="#FFFFFF" fill-rule="nonzero" style="mix-blend-mode: overlay;" opacity="0.244698661" mask="url(#mask-3)"></path> <g id="Path-125" opacity="0.515880766" mask="url(#mask-3)"> <use fill="#958A76" xlink:href="#path-6"></use> <use fill="url(#linearGradient-5)" xlink:href="#path-6"></use> </g> </g> <path d="M5.74477732,1.67569774 C6.50255684,2.25657158 6.91661804,2.97893992 6.98696093,3.84280275 C7.703209,7.41479001 19.9326701,14.616464 28.6487663,15.3298205 C34.4594971,15.8053915 41.3470053,14.5991688 49.3112907,11.7111524 L49.3112907,11.7111524 L51.0476059,11.3123579 C51.9055718,11.1153015 52.6745709,10.6407208 53.2353956,9.96218388 L56.8075537,5.64026066 C56.9004413,5.52787681 56.96763,5.39654036 57.004412,5.25545417 L57.54273,3.19060594 C57.6108057,2.92948525 57.7815229,2.70696042 58.0161025,2.57357869 L60.9314974,0.915888513 C61.2324207,0.744783861 61.600433,0.741480414 61.9043794,0.907155478 L64.4313547,2.28455883 C64.9162794,2.54888151 65.0951127,3.15626653 64.83079,3.64119122 C64.8245681,3.65260598 64.8181241,3.66389832 64.8114618,3.67506181 L62.9168837,6.84966262 C62.7364408,7.15201706 62.4102829,7.33719348 62.058178,7.33719348 L61.0437701,7.33719348 C60.7460547,7.33719348 60.4638204,7.46984536 60.2738398,7.69906549 L57.6317393,10.8868794 C57.1943943,11.4145559 56.9509099,12.0760715 56.9417955,12.7613671 C56.9045805,15.5595058 56.7140661,17.6495549 56.3702523,19.0315143 C55.7919333,21.3560675 45.878335,32.9355857 25.0646344,29.219597 C14.1828161,27.2768039 6.69645676,22.8471256 2.60555637,15.9305623 C0.698995341,12.7071046 0.275220596,8.81800652 1.44279397,5.25957612 L1.78498158,4.21668598 L1.78498158,4.21668598 L1.91112358,3.04424051 C1.95395814,2.64610841 2.23016168,2.31191673 2.61310577,2.19487917 L4.84412042,1.51302371 C5.15299315,1.41861545 5.48844455,1.47920654 5.74477732,1.67569774 Z" id="Path-123" stroke="#7A746A"></path> </g> </g> </g> </g> </svg>