<svg width="24" height="24" viewBox="0 0 24 24" fill="none" xmlns="http://www.w3.org/2000/svg"> <path fill-rule="evenodd" clip-rule="evenodd" d="M8 5H11C11.5523 5 12 5.44772 12 6V10C12 10.5523 12.4477 11 13 11H17C17.5523 11 18 11.4477 18 12V17C18 18.1046 17.1046 19 16 19H8C6.89543 19 6 18.1046 6 17V7C6 5.89543 6.89543 5 8 5Z" fill="#C1C9D4"/> <path fill-rule="evenodd" clip-rule="evenodd" d="M14.7071 5.70711L17.2929 8.29289C17.6834 8.68342 17.6834 9.31658 17.2929 9.70711C17.1054 9.89464 16.851 10 16.5858 10H14C13.4477 10 13 9.55229 13 9V6.41422C13 5.86193 13.4477 5.41422 14 5.41422C14.2652 5.41422 14.5196 5.51957 14.7071 5.70711Z" fill="#7A83A6"/> </svg> 