<svg width="24" height="24" viewBox="0 0 24 24" fill="none" xmlns="http://www.w3.org/2000/svg"> <path fill-rule="evenodd" clip-rule="evenodd" d="M7.49999 4.93782C9.89145 3.55711 12.9494 4.37648 14.3301 6.76795L16.8301 11.0981C17.1063 11.5764 16.9424 12.188 16.4641 12.4641L9.53589 16.4641C9.05759 16.7402 8.446 16.5764 8.16986 16.0981L5.66986 11.7679C4.28915 9.37648 5.10852 6.31853 7.49999 4.93782Z" fill="#C1C9D4"/> <path d="M8 5.80384C8.47829 5.5277 8.64217 4.91611 8.36602 4.43782C8.08988 3.95953 7.47829 3.79565 7 4.07179C6.5217 4.34793 6.35783 4.95953 6.63397 5.43782C6.91011 5.91611 7.5217 6.07999 8 5.80384Z" fill="#464B55"/> <path d="M15 17.9282C15.9566 17.3759 16.2843 16.1527 15.732 15.1962L12.2679 17.1962C12.8202 18.1527 14.0434 18.4805 15 17.9282Z" fill="#464B55"/> <path d="M16.8301 11.0981L8.16986 16.0981C7.69157 16.3742 7.52769 16.9858 7.80383 17.4641C8.07998 17.9424 8.69157 18.1063 9.16986 17.8301L17.8301 12.8301C18.3084 12.554 18.4723 11.9424 18.1961 11.4641C17.92 10.9858 17.3084 10.8219 16.8301 11.0981Z" fill="#464B55"/> </svg> 