<svg width="24" height="24" viewBox="0 0 24 24" fill="none" xmlns="http://www.w3.org/2000/svg"> <path fill-rule="evenodd" clip-rule="evenodd" d="M6.5 7H17.5C18.3284 7 19 7.67157 19 8.5V9.3406C19 9.74063 18.7616 10.1022 18.3939 10.2597L12 13L5.60608 10.2597C5.2384 10.1022 5 9.74063 5 9.3406V8.5C5 7.67157 5.67157 7 6.5 7Z" fill="#4D5054"/> <path fill-rule="evenodd" clip-rule="evenodd" d="M6.49614 11.855L12 14.5L17.5039 11.855C17.9834 11.5809 18.5942 11.7475 18.8682 12.2271C18.9546 12.3782 19 12.5492 19 12.7232V16C19 17.1046 18.1046 18 17 18H7C5.89543 18 5 17.1046 5 16V12.7232C5 12.1709 5.44772 11.7232 6 11.7232C6.17403 11.7232 6.34504 11.7686 6.49614 11.855Z" fill="#4D5054"/> </svg> 