<svg width="24" height="24" viewBox="0 0 24 24" fill="none" xmlns="http://www.w3.org/2000/svg"> <path fill-rule="evenodd" clip-rule="evenodd" d="M7.99928 6.01678L8 6C8 7.65685 9.34315 9 11 9H13C14.6511 9 15.9907 7.66611 16 6.01714C16.4873 6.05076 16.7313 6.13582 16.9768 6.26713C17.3028 6.44144 17.5586 6.69723 17.7329 7.02315C17.9072 7.34908 18 7.67237 18 8.56388V16.4361C18 17.3276 17.9072 17.6509 17.7329 17.9768C17.5586 18.3028 17.3028 18.5586 16.9768 18.7329C16.6509 18.9072 16.3276 19 15.4361 19H8.56388C7.67237 19 7.34908 18.9072 7.02315 18.7329C6.69723 18.5586 6.44144 18.3028 6.26713 17.9768C6.09283 17.6509 6 17.3276 6 16.4361V8.56388C6 7.67237 6.09283 7.34908 6.26713 7.02315C6.44144 6.69723 6.69723 6.44144 7.02315 6.26713C7.26868 6.13582 7.51271 6.05076 7.99928 6.01678Z" fill="#C1C9D4"/> <path d="M13.5 5H10.5C9.67157 5 9 5.67157 9 6.5C9 7.32843 9.67157 8 10.5 8H13.5C14.3284 8 15 7.32843 15 6.5C15 5.67157 14.3284 5 13.5 5Z" fill="#7A83A6"/> </svg> 