<svg width="24" height="24" viewBox="0 0 24 24" fill="none" xmlns="http://www.w3.org/2000/svg"> <path fill-rule="evenodd" clip-rule="evenodd" d="M9.30528 19.4112C8.39871 20.0423 7.15223 19.8189 6.5212 18.9123C6.17171 18.4103 6.07123 17.7758 6.24846 17.1903L7.08027 14.4422L4.79204 12.7079C3.91174 12.0407 3.739 10.7862 4.4062 9.90594C4.77571 9.41841 5.34802 9.1268 5.95964 9.11442L8.83027 9.05632L9.7726 6.34415C10.1351 5.30076 11.2748 4.74881 12.3182 5.11133C12.8961 5.3121 13.3503 5.76629 13.551 6.34415L14.4934 9.05632L17.364 9.11442C18.4683 9.13678 19.3455 10.0501 19.3231 11.1545C19.3107 11.7661 19.0191 12.3384 18.5316 12.7079L16.2434 14.4422L17.0752 17.1903C17.3952 18.2475 16.7976 19.364 15.7404 19.684C15.1549 19.8612 14.5204 19.7607 14.0184 19.4112L11.6618 17.7709L9.30528 19.4112Z" fill="#C1C9D4"/> <path fill-rule="evenodd" clip-rule="evenodd" d="M9.36891 12.2465C8.97839 11.856 8.34522 11.856 7.9547 12.2465C7.56417 12.637 7.56417 13.2702 7.9547 13.6607L9.9547 15.6607C10.3452 16.0512 10.9784 16.0512 11.3689 15.6607L15.3689 11.6607C15.7594 11.2702 15.7594 10.637 15.3689 10.2465C14.9784 9.85598 14.3452 9.85598 13.9547 10.2465L10.6618 13.5394L9.36891 12.2465Z" fill="#7A83A6"/> </svg> 