<svg width="24" height="24" viewBox="0 0 24 24" fill="none" xmlns="http://www.w3.org/2000/svg"> <path d="M18 13C18 14.1046 17.1046 15 16 15H10C10 16 10.5 17 11.5 17H14.446C14.8085 17 15.1642 17.0985 15.475 17.285L18.4855 19.0913C18.9591 19.3755 19.5733 19.2219 19.8575 18.7483C19.9507 18.5929 20 18.4151 20 18.2338V12C20 10.8954 19.1046 10 18 10V13Z" fill="#7A83A6"/> <path fill-rule="evenodd" clip-rule="evenodd" d="M9.70156 14C9.24742 14 8.8068 14.1546 8.45217 14.4383L5.62469 16.7002C5.19343 17.0453 4.56414 16.9753 4.21913 16.5441C4.07728 16.3668 4 16.1464 4 15.9194V7C4 5.89543 4.89543 5 6 5H15C16.1046 5 17 5.89543 17 7V12C17 13.1046 16.1046 14 15 14H9.70156Z" fill="#464B55"/> </svg>