<svg width="24" height="24" viewBox="0 0 24 24" fill="none" xmlns="http://www.w3.org/2000/svg"> <path fill-rule="evenodd" clip-rule="evenodd" d="M5.5 5H18.5C19.3284 5 20 5.67157 20 6.5V7C20 7.55228 19.5523 8 19 8H5C4.44772 8 4 7.55228 4 7V6.5C4 5.67157 4.67157 5 5.5 5Z" fill="#C1C9D4"/> <path fill-rule="evenodd" clip-rule="evenodd" d="M5 12H19C19.5523 12 20 12.4477 20 13V16C20 17.1046 19.1046 18 18 18H6C4.89543 18 4 17.1046 4 16V13C4 12.4477 4.44772 12 5 12Z" fill="#C1C9D4"/> <path d="M5 9H19C19.5523 9 20 9.44772 20 10C20 10.5523 19.5523 11 19 11H5C4.44772 11 4 10.5523 4 10C4 9.44772 4.44772 9 5 9Z" fill="#7A83A6"/> </svg> 