<svg xmlns="http://www.w3.org/2000/svg" width="24" height="24" viewBox="0 0 24 24">
    <g fill="none" fill-rule="evenodd">
        <g>
            <g>
                <g>
                    <path d="M0 0H24V24H0z" transform="translate(-558 -609) translate(478 120) translate(80 489)"/>
                    <path stroke="#595F6B" stroke-linecap="round" stroke-linejoin="round" stroke-width="1.3" d="M6.5 5.5h3l3 2h5c1.105 0 2 .895 2 2v7c0 1.105-.895 2-2 2h-11c-1.105 0-2-.895-2-2v-9c0-1.105.895-2 2-2z" transform="translate(-558 -609) translate(478 120) translate(80 489)"/>
                    <path stroke="#595F6B" stroke-linecap="round" stroke-linejoin="round" stroke-width="1.3" d="M4.5 12.5c0-1.063.862-1.924 1.924-1.924h11.152c1.062 0 1.924.861 1.924 1.924h0" transform="translate(-558 -609) translate(478 120) translate(80 489)"/>
                </g>
            </g>
        </g>
    </g>
</svg>
