<svg xmlns="http://www.w3.org/2000/svg" width="24" height="24" viewBox="0 0 24 24">
    <g fill="none" fill-rule="evenodd">
        <g>
            <g>
                <g>
                    <path d="M0 0H24V24H0z" transform="translate(-558 -649) translate(478 120) translate(80 529)"/>
                    <path stroke="#595F6B" stroke-linecap="round" stroke-linejoin="round" stroke-width="1.3" d="M6.5 7.5h11c1.105 0 2 .895 2 2v7c0 1.105-.895 2-2 2h-11c-1.105 0-2-.895-2-2v-7c0-1.105.895-2 2-2zM10.5 4.5h3c1.105 0 2 .895 2 2v1h0-7v-1c0-1.105.895-2 2-2zM5.5 11.5L10.5 13.038M13.538 13.027L18.5 11.5" transform="translate(-558 -649) translate(478 120) translate(80 529)"/>
                    <path stroke="#595F6B" stroke-linecap="round" stroke-linejoin="round" stroke-width="1.3" d="M11.5 11.5h1c.552 0 1 .448 1 1v1c0 .552-.448 1-1 1h-1c-.552 0-1-.448-1-1v-1c0-.552.448-1 1-1z" transform="translate(-558 -649) translate(478 120) translate(80 529)"/>
                </g>
            </g>
        </g>
    </g>
</svg>
