<svg xmlns="http://www.w3.org/2000/svg" width="24" height="24" viewBox="0 0 24 24">
    <g fill="none" fill-rule="evenodd">
        <g>
            <g>
                <g>
                    <path d="M0 0H24V24H0z" transform="translate(-598 -689) translate(478 120) translate(120 569)"/>
                    <path stroke="#595F6B" stroke-linecap="round" stroke-linejoin="round" stroke-width="1.3" d="M6.108 5.178l2.608-.521c.517-.104 1.05-.104 1.568 0l3.432.686c.517.104 1.05.104 1.568 0l1.824-.365c1.083-.216 2.137.486 2.353 1.57.026.129.039.26.039.392v9.92c0 .954-.673 1.775-1.608 1.962l-2.606.521c-.518.104-1.05.104-1.569 0l-3.433-.686c-.517-.104-1.05-.104-1.568 0l-1.824.365c-1.083.216-2.137-.486-2.353-1.57-.026-.129-.039-.26-.039-.392V7.14c0-.954.673-1.775 1.608-1.962z" transform="translate(-598 -689) translate(478 120) translate(120 569)"/>
                    <path stroke="#464B55" stroke-linecap="square" stroke-width="1.3" d="M9.5 5.5L9.5 18.5M14.5 6.464L14.5 18.536" transform="translate(-598 -689) translate(478 120) translate(120 569)"/>
                </g>
            </g>
        </g>
    </g>
</svg>
