<svg xmlns="http://www.w3.org/2000/svg" width="16" height="16" viewBox="0 0 16 16"> <g fill="none" fill-rule="evenodd"> <g> <g> <g> <g> <g> <path d="M0 0H16V16H0z" transform="translate(-813 -292) translate(736 284) translate(4 4) translate(6 3) translate(67 1)"/> <path fill="#7489AE" d="M4.293 4.293c.39-.39 1.024-.39 1.414 0L8 6.585l2.293-2.292c.36-.36.928-.388 1.32-.083l.094.083c.39.39.39 1.024 0 1.414L9.415 8l2.292 2.293c.36.36.388.928.083 1.32l-.083.094c-.39.39-1.024.39-1.414 0L8 9.415l-2.293 2.292c-.36.36-.928.388-1.32.083l-.094-.083c-.39-.39-.39-1.024 0-1.414L6.585 8 4.293 5.707c-.36-.36-.388-.928-.083-1.32z" transform="translate(-813 -292) translate(736 284) translate(4 4) translate(6 3) translate(67 1)"/> </g> </g> </g> </g> </g> </g> </svg> 