<svg xmlns="http://www.w3.org/2000/svg" width="16" height="16" viewBox="0 0 16 16"> <g fill="none" fill-rule="evenodd"> <g> <g> <g> <g> <g transform="translate(-562 -1165) translate(478 120) translate(84 1045)"> <rect width="16" height="16" rx="4"/> </g> <g transform="translate(-562 -1165) translate(478 120) translate(84 1045)"> <rect width="16" height="16" rx="4"/> </g> <g fill="#4D5054"> <path d="M5.128 0h5.744c1.783 0 2.43.186 3.082.534.652.349 1.163.86 1.512 1.512.348.652.534 1.299.534 3.082v5.744c0 1.783-.186 2.43-.534 3.082-.349.652-.86 1.163-1.512 1.512-.652.348-1.299.534-3.082.534H5.128c-1.783 0-2.43-.186-3.082-.534-.652-.349-1.163-.86-1.512-1.512C.186 13.302 0 12.655 0 10.872V5.128c0-1.783.186-2.43.534-3.082.349-.652.86-1.163 1.512-1.512C2.698.186 3.345 0 5.128 0z" transform="translate(-562 -1165) translate(478 120) translate(84 1045)"/> </g> <g> <path d="M12 0c2.21 0 4 1.79 4 4v8c0 2.21-1.79 4-4 4H4c-2.21 0-4-1.79-4-4V4c0-2.21 1.79-4 4-4h8zm0 1H4C2.343 1 1 2.343 1 4v8c0 1.657 1.343 3 3 3h8c1.657 0 3-1.343 3-3V4c0-1.657-1.343-3-3-3z" transform="translate(-562 -1165) translate(478 120) translate(84 1045)"/> </g> </g> <g fill="#FFF" transform="translate(-562 -1165) translate(478 120) translate(84 1045)"> <rect width="8" height="2" x="4" y="7" rx="1"/> </g> </g> </g> </g> </g> </svg> 