<svg xmlns="http://www.w3.org/2000/svg" width="24" height="24" viewBox="0 0 24 24"> <g fill="none" fill-rule="evenodd"> <g> <g> <g> <path d="M0 0H24V24H0z" transform="translate(-347 -122) translate(99 110) translate(248 12)"/> <path fill="#7489AE" d="M7.293 7.293c.39-.39 1.024-.39 1.414 0L12 10.585l3.293-3.292c.36-.36.928-.388 1.32-.083l.094.083c.39.39.39 1.024 0 1.414L13.415 12l3.292 3.293c.36.36.388.928.083 1.32l-.083.094c-.39.39-1.024.39-1.414 0L12 13.415l-3.293 3.292c-.36.36-.928.388-1.32.083l-.094-.083c-.39-.39-.39-1.024 0-1.414L10.585 12 7.293 8.707c-.36-.36-.388-.928-.083-1.32z" transform="translate(-347 -122) translate(99 110) translate(248 12)"/> </g> </g> </g> </g> </svg> 