<svg xmlns="http://www.w3.org/2000/svg" width="24" height="24" viewBox="0 0 24 24"> <g fill="none" fill-rule="evenodd"> <g> <g> <g> <path d="M0 0H24V24H0z" transform="translate(-638 -1049) translate(478 120) translate(160 929)"/> <g stroke="#595F6B" stroke-linecap="round" stroke-linejoin="round" stroke-width="1.3"> <path d="M2.443.808l2.62-.35c2.281-.304 4.593-.304 6.873 0l2.621.35c.86.114 1.548.77 1.703 1.624l.24 1.318c.33 1.818.33 3.682 0 5.5l-.24 1.318c-.155.853-.843 1.51-1.703 1.624l-2.62.35c-2.281.304-4.593.304-6.873 0l-2.621-.35c-.86-.114-1.548-.77-1.703-1.624L.5 9.25C.17 7.432.17 5.568.5 3.75l.24-1.318C.895 1.58 1.583.922 2.443.808z" transform="translate(-638 -1049) translate(478 120) translate(160 929) translate(3.5 5.5)"/> <path d="M7 4.92v3.16c0 .552.448 1 1 1 .205 0 .405-.064.573-.181l2.257-1.58c.452-.316.562-.94.245-1.392-.067-.096-.15-.18-.245-.246L8.573 4.1c-.452-.316-1.076-.206-1.392.246-.118.168-.181.368-.181.574z" transform="translate(-638 -1049) translate(478 120) translate(160 929) translate(3.5 5.5)"/> </g> </g> </g> </g> </g> </svg> 