<svg xmlns="http://www.w3.org/2000/svg" width="24" height="24" viewBox="0 0 24 24"> <g fill="none" fill-rule="evenodd"> <g> <g> <g transform="translate(-638 -889) translate(478 120) translate(160 768)"> <path d="M0 1H24V25H0z"/> <path stroke="#595F6B" stroke-linecap="round" stroke-linejoin="round" stroke-width="1.3" d="M14.39 5.483l1.354 3.926c1.133 3.284 1.046 6.866-.244 10.091h0-6c-1.29-3.225-1.377-6.807-.244-10.091l1.353-3.926c.36-1.044 1.499-1.599 2.543-1.239.581.2 1.038.658 1.239 1.24z"/> <circle cx="12.5" cy="11.5" r="2" stroke="#595F6B" stroke-linecap="round" stroke-linejoin="round" stroke-width="1.3"/> <path stroke="#595F6B" stroke-linecap="round" stroke-linejoin="round" stroke-width="1.3" d="M15.468 18.622L18.5 21.5 19.5 21.5 18.5 16.622 16.468 12.5"/> <path stroke="#595F6B" stroke-linecap="round" stroke-linejoin="round" stroke-width="1.3" d="M5.468 18.622L8.5 21.5 9.5 21.5 8.5 16.622 6.468 12.5" transform="matrix(-1 0 0 1 14.968 0)"/> <path stroke="#595F6B" stroke-linecap="round" stroke-linejoin="round" stroke-width="1.3" d="M12.5 14.5L12.5 21.5"/> </g> </g> </g> </g> </svg> 