<svg xmlns="http://www.w3.org/2000/svg" width="24" height="24" viewBox="0 0 24 24"> <g fill="none" fill-rule="evenodd"> <g> <g> <g> <path d="M0 0H24V24H0z" transform="translate(-558 -889) translate(478 120) translate(80 769)"/> <path fill="#8d4afc" d="M12 4c4.418 0 8 3.582 8 8s-3.582 8-8 8c-.552 0-1-.448-1-1s.448-1 1-1c3.314 0 6-2.686 6-6s-2.686-6-6-6c-2.96 0-5.42 2.144-5.91 4.964l1.722-.954c.446-.247 1-.117 1.292.284l.068.106c.247.446.117.999-.284 1.292l-.106.068-3.71 2.057c-.447.247-1 .117-1.292-.284l-.068-.106-2.057-3.711c-.268-.483-.093-1.092.39-1.36.446-.247.999-.117 1.292.284l.067.106.801 1.445C5.025 6.644 8.204 4 12 4z" transform="translate(-558 -889) translate(478 120) translate(80 769)"/> </g> </g> </g> </g> </svg> 