<svg xmlns="http://www.w3.org/2000/svg" width="24" height="24" viewBox="0 0 24 24"> <g fill="none" fill-rule="evenodd"> <g> <g> <g> <path d="M0 0H24V24H0z" transform="translate(-478 -889) translate(478 120) translate(0 769)"/> <path stroke="#595F6B" stroke-linecap="round" stroke-linejoin="round" stroke-width="1.3" d="M16 15.5c1.38 0 2.5-.457 2.5-3 0-2.542-1.12-3-2.5-3s-2.5.45-2.5 3c0 2.574 1.12 3 2.5 3zM3.5 5.5h10v2l-.121-.485c-.223-.89-1.023-1.515-1.94-1.515H8.5h0-2.94c-.917 0-1.717.623-1.94 1.512l-.123.488h0l.003-2z" transform="translate(-478 -889) translate(478 120) translate(0 769)"/> <path stroke="#595F6B" stroke-linecap="round" stroke-linejoin="round" stroke-width="1.3" d="M8.499 5.5v7.806c0 .977-.707 1.812-1.672 1.972L5.5 15.5h6l-1.33-.22c-.964-.161-1.671-.996-1.671-1.974V5.5h0zM18.5 12v2.5c0 .552.448 1 1 1h0" transform="translate(-478 -889) translate(478 120) translate(0 769)"/> </g> </g> </g> </g> </svg> 