<svg xmlns="http://www.w3.org/2000/svg" width="24" height="24" viewBox="0 0 24 24"> <g fill="none" fill-rule="evenodd"> <g> <g> <g> <path d="M0 0H24V24H0z" transform="translate(-518 -209) translate(478 120) translate(40 89)"/> <path fill="#464B55" d="M13.707 5.293l6 6c.39.39.39 1.024 0 1.414l-6 6c-.39.39-1.024.39-1.414 0-.39-.39-.39-1.024 0-1.414L16.585 13H4.027C3.46 13 3 12.552 3 12c0-.513.396-.936.907-.993l.12-.007h12.558l-4.292-4.293c-.39-.39-.39-1.024 0-1.414.39-.39 1.024-.39 1.414 0z" transform="translate(-518 -209) translate(478 120) translate(40 89)"/> </g> </g> </g> </g> </svg> 