<svg xmlns="http://www.w3.org/2000/svg" width="24" height="24" viewBox="0 0 24 24"> <g fill="none" fill-rule="evenodd"> <g> <g> <g transform="translate(-678 -729) translate(478 120) translate(200 609)"> <path d="M0 0H24V24H0z"/> <circle cx="12" cy="12" r="6.5" stroke="#464B55" stroke-width="1.3"/> <path stroke="#595F6B" stroke-linecap="round" stroke-linejoin="round" stroke-width="1.3" d="M9.998 4.5L12 2.5 14.002 4.5M9.998 19.5L12 21.5 14.002 19.5"/> <g stroke="#595F6B" stroke-linecap="round" stroke-linejoin="round" stroke-width="1.3"> <path d="M0 2L2.002 0 4.003 2M0 17L2.002 19 4.003 17" transform="rotate(-90 8.25 5.75)"/> </g> <g stroke="#595F6B" stroke-linecap="round" stroke-linejoin="round" stroke-width="1.3"> <path d="M0 2L2.002 0 4.003 2M0 17L2.002 19 4.003 17" transform="rotate(-135 7.517 8.68)"/> </g> <g stroke="#595F6B" stroke-linecap="round" stroke-linejoin="round" stroke-width="1.3"> <path d="M0 2L2.002 0 4.003 2M0 17L2.002 19 4.003 17" transform="rotate(135 6.481 12.82)"/> </g> <circle cx="14" cy="10" r="3.5" fill="#474C56" stroke="#464B55" stroke-width="1.3"/> </g> </g> </g> </g> </svg> 