<svg xmlns="http://www.w3.org/2000/svg" width="24" height="24" viewBox="0 0 24 24"> <g fill="none" fill-rule="evenodd"> <g> <g> <g> <path d="M0 0H24V24H0z" transform="translate(-478 -969) translate(478 120) translate(0 849)"/> <path stroke="#595F6B" stroke-linecap="round" stroke-linejoin="round" stroke-width="1.3" d="M3.5 17.5l12-12 4.586 4.586c.78.78.78 2.047 0 2.828l-3.172 3.172c-.78.78-2.047.78-2.828 0L9.5 11.5h0" transform="translate(-478 -969) translate(478 120) translate(0 849)"/> <path stroke="#595F6B" stroke-linecap="round" stroke-linejoin="round" stroke-width="1.3" d="M12.5 14.5L15.5 11.5 12.5 8.5 9.5 11.5zM18.5 14.5l1.586-1.586c.78-.78.78-2.047 0-2.828L18.5 8.5h0l-3 3 3 3z" transform="translate(-478 -969) translate(478 120) translate(0 849)"/> </g> </g> </g> </g> </svg> 