<svg xmlns="http://www.w3.org/2000/svg" width="24" height="24" viewBox="0 0 24 24"> <g fill="none" fill-rule="evenodd"> <g> <g> <g> <path d="M0 0H24V24H0z" transform="translate(-638 -929) translate(478 120) translate(160 809)"/> <g stroke="#595F6B" stroke-linecap="round" stroke-linejoin="round" stroke-width="1.3"> <path d="M9.846 1.428l.943.943c.39.39.39 1.024 0 1.414L4.425 10.15h0L.495 11.72l1.572-3.928 6.364-6.365c.39-.39 1.024-.39 1.415 0zM7.984 2.825L9.317 4.158M2.674 8.284L4.008 9.618" transform="translate(-638 -929) translate(478 120) translate(160 809) rotate(-21 27.187 -17.978)"/> </g> <path stroke="#595F6B" stroke-linecap="round" stroke-linejoin="round" stroke-width="1.3" d="M12.926 19.8s-2.65 1.399-5.385 0c-2.734-1.398-3.225-5.799 0-6.996 3.226-1.197 4.925-7.382.707-7.382-4.217 0-4.13 3.185-3.14 4.492.989 1.306 4.943 2.386 4.943 6.136" transform="translate(-638 -929) translate(478 120) translate(160 809)"/> </g> </g> </g> </g> </svg> 