<svg xmlns="http://www.w3.org/2000/svg" width="24" height="24" viewBox="0 0 24 24"> <g fill="none" fill-rule="evenodd"> <g> <g> <g> <path d="M0 0H24V24H0z" transform="translate(-598 -169) translate(478 120) translate(120 49)"/> <path stroke="#595F6B" stroke-linecap="round" stroke-linejoin="round" stroke-width="1.3" d="M18.5 16.5h-7c-.552 0-1-.448-1-1v-4c0-.552.448-1 1-1h1c.552 0 1-.448 1-1v-1c0-.552.448-1 1-1h4c.552 0 1 .448 1 1v7c0 .552-.448 1-1 1zM6.5 8.5L6.5 4.5 16.5 4.5 16.5 5.5" transform="translate(-598 -169) translate(478 120) translate(120 49)"/> <path stroke="#595F6B" stroke-linecap="round" stroke-linejoin="round" stroke-width="1.3" d="M8.5 10.5L4.5 10.5 4.5 19.5 16.5 19.5 16.5 18.5" transform="translate(-598 -169) translate(478 120) translate(120 49)"/> </g> </g> </g> </g> </svg> 