<svg xmlns="http://www.w3.org/2000/svg" width="24" height="24" viewBox="0 0 24 24"> <g fill="none" fill-rule="evenodd"> <g> <g> <g> <path d="M0 0H24V24H0z" transform="translate(-478 -449) translate(478 120) translate(0 329)"/> <path stroke="#595F6B" stroke-linecap="round" stroke-linejoin="round" stroke-width="1.3" d="M16.82 15.94c-.972-.775-1.959-1.244-2.92-.47l-.573.467c-.42.34-1.2 1.926-4.215-1.307-3.016-3.23-1.221-3.733-.801-4.07l.576-.468c.956-.775.595-1.752-.094-2.757l-.416-.609c-.692-1.002-1.446-1.66-2.403-.886l-.518.421c-.423.287-1.607 1.222-1.894 2.997-.345 2.13.745 4.568 3.241 7.244 2.494 2.677 4.935 4.021 7.248 3.998 1.922-.02 3.082-.98 3.445-1.33l.52-.422c.955-.774.362-1.562-.611-2.339l-.585-.469zM12.5 10.5L17.5 10.5M12.5 7.5L19.5 7.5" transform="translate(-478 -449) translate(478 120) translate(0 329)"/> </g> </g> </g> </g> </svg> 