<svg xmlns="http://www.w3.org/2000/svg" width="24" height="24" viewBox="0 0 24 24"> <g fill="none" fill-rule="evenodd"> <g> <g> <g> <path d="M0 0H24V24H0z" transform="translate(-638 -969) translate(478 120) translate(160 849)"/> <path fill="#464B55" d="M11.31 6.71c.442-.305 1.08-.278 1.485.083l3.375 3 .094.094c.343.392.312.96-.094 1.32l-.105.083c-.442.305-1.08.278-1.485-.083l-1.6-1.422c.006.027.01.053.013.08l.007.117v1c0 2.689 1.122 3.882 3.783 3.995l.217.005h1c.552 0 1 .448 1 1 0 .513-.386.936-.883.993l-.117.007h-1c-3.785 0-5.87-2.005-5.996-5.76l-.004-.24v-1c0-.067.007-.132.02-.196l-1.6 1.421-.105.083c-.442.305-1.08.278-1.485-.083-.44-.39-.44-1.024 0-1.414l3.375-3z" transform="translate(-638 -969) translate(478 120) translate(160 849)"/> </g> </g> </g> </g> </svg> 