<svg xmlns="http://www.w3.org/2000/svg" width="24" height="24" viewBox="0 0 24 24"> <g fill="none" fill-rule="evenodd"> <g> <g> <g transform="translate(-518 -809) translate(478 120) translate(40 689)"> <path d="M0 0H24V24H0z"/> <path stroke="#595F6B" stroke-linecap="round" stroke-linejoin="round" stroke-width="1.3" d="M4.5 9.127V7.5c0-1.105.895-2 2-2h9c1.105 0 2 .895 2 2v1h0"/> <path stroke="#595F6B" stroke-linecap="round" stroke-linejoin="round" stroke-width="1.3" d="M4.5 6.5v1c0 .552.448 1 1 1h12c1.105 0 2 .895 2 2v6c0 1.105-.895 2-2 2h-11c-1.105 0-2-.895-2-2v-10z"/> <circle cx="15.5" cy="13.5" r="1" stroke="#595F6B" stroke-linecap="round" stroke-linejoin="round" stroke-width="1.3"/> </g> </g> </g> </g> </svg> 