<svg width="24" height="24" viewBox="0 0 24 24" fill="none" xmlns="http://www.w3.org/2000/svg">
<path fill-rule="evenodd" clip-rule="evenodd" d="M10.2929 5.29289C10.6834 4.90237 11.3166 4.90237 11.7071 5.29289C12.0976 5.68342 12.0976 6.31658 11.7071 6.70711L7.413 11H20C20.5523 11 21 11.4477 21 12C21 12.5128 20.614 12.9355 20.1166 12.9933L20 13H7.415L11.7071 17.2929C12.0676 17.6534 12.0953 18.2206 11.7903 18.6129L11.7071 18.7071C11.3166 19.0976 10.6834 19.0976 10.2929 18.7071L4.29289 12.7071C3.90237 12.3166 3.90237 11.6834 4.29289 11.2929L10.2929 5.29289Z" fill="#4D5054"/>
</svg>
