<svg xmlns="http://www.w3.org/2000/svg" width="24" height="24" viewBox="0 0 24 24"> <g fill="none" fill-rule="evenodd"> <g> <g> <g> <path d="M0 0H24V24H0z" transform="translate(-598 -569) translate(478 120) translate(120 449)"/> <g stroke="#595F6B" stroke-linecap="round" stroke-linejoin="round" stroke-width="1.3"> <path d="M4 0h7c2.21 0 4 1.79 4 4v7c0 2.21-1.79 4-4 4H4c-2.21 0-4-1.79-4-4V4c0-2.21 1.79-4 4-4z" transform="translate(-598 -569) translate(478 120) translate(120 449) translate(4.5 4.5)"/> </g> <path stroke="#595F6B" stroke-linecap="round" stroke-linejoin="round" stroke-width="1.3" d="M10.5 19.5v-10c0-1.105.895-2 2-2h3v2h-2c-.552 0-1 .448-1 1v1h3v2h-3v6" transform="translate(-598 -569) translate(478 120) translate(120 449)"/> </g> </g> </g> </g> </svg> 