<svg xmlns="http://www.w3.org/2000/svg" width="24" height="24" viewBox="0 0 24 24"> <g fill="none" fill-rule="evenodd"> <g> <g> <g> <path d="M0 0H24V24H0z" transform="translate(-478 -489) translate(478 120) translate(0 369)"/> <path stroke="#595F6B" stroke-linecap="round" stroke-linejoin="round" stroke-width="1.3" d="M6.5 11.5h11c1.105 0 2 .895 2 2v2c0 1.105-.895 2-2 2h-11c-1.105 0-2-.895-2-2v-2c0-1.105.895-2 2-2zM6.5 14.5L12.5 14.5M15.5 14.5L16.5 14.5M6.5 5.5h11c1.105 0 2 .895 2 2v2c0 1.105-.895 2-2 2h-11c-1.105 0-2-.895-2-2v-2c0-1.105.895-2 2-2zM6.5 8.5L12.5 8.5M15.5 8.5L16.5 8.5" transform="translate(-478 -489) translate(478 120) translate(0 369)"/> </g> </g> </g> </g> </svg> 