<svg xmlns="http://www.w3.org/2000/svg" width="24" height="24" viewBox="0 0 24 24"> <g fill="none" fill-rule="evenodd"> <g> <g> <g> <path d="M0 0H24V24H0z" transform="translate(-558 -249) translate(478 120) translate(80 129)"/> <path stroke="#595F6B" stroke-linecap="round" stroke-linejoin="round" stroke-width="1.3" d="M6.5 7.5h3c2.099 0 4.225-.853 6.379-2.56.433-.343 1.062-.27 1.405.163.14.177.216.395.216.62v9.553c0 .552-.448 1-1 1-.225 0-.444-.076-.621-.216-2.154-1.707-4.28-2.56-6.378-2.56H6.5c-1.105 0-2-.895-2-2v-2c0-1.105.895-2 2-2zM9.501 7.5L9.501 13.5" transform="translate(-558 -249) translate(478 120) translate(80 129)"/> <path stroke="#595F6B" stroke-linecap="round" stroke-linejoin="round" stroke-width="1.3" d="M6.5 13.5v4c0 .552.448 1 1 1 .581 0 1.082-.41 1.196-.98L9.5 13.5h0M17.5 7.5c1.105 0 2 .895 2 2v2c0 1.105-.895 2-2 2h0" transform="translate(-558 -249) translate(478 120) translate(80 129)"/> </g> </g> </g> </g> </svg> 