<svg xmlns="http://www.w3.org/2000/svg" width="24" height="24" viewBox="0 0 24 24"> <g fill="none" fill-rule="evenodd"> <g> <g> <g> <path d="M0 0H24V24H0z" transform="translate(-678 -449) translate(478 120) translate(200 329)"/> <path stroke="#595F6B" stroke-linecap="round" stroke-linejoin="round" stroke-width="1.3" d="M6.015 11.121L8.5 10.5h7l2.485.621c.89.223 1.515 1.023 1.515 1.94V15.5c0 1.105-.895 2-2 2h-11c-1.105 0-2-.895-2-2v-2.438c0-.918.625-1.718 1.515-1.94zM14.5 4.5c.552 0 1 .448 1 1v5h0-2v-5c0-.552.448-1 1-1zM6.5 14.5L12.5 14.5M15.5 14.5L16.5 14.5" transform="translate(-678 -449) translate(478 120) translate(200 329)"/> </g> </g> </g> </g> </svg> 