<svg xmlns="http://www.w3.org/2000/svg" width="24" height="24" viewBox="0 0 24 24"> <g fill="none" fill-rule="evenodd"> <g fill="#3075EA"> <g> <g> <path d="M6.769 3H17.23c1.31 0 1.786.136 2.265.393.48.256.855.632 1.111 1.111.257.48.393.954.393 2.265V17.23c0 1.31-.136 1.786-.393 2.265-.256.48-.632.855-1.111 1.111-.48.257-.954.393-2.265.393H6.77c-1.31 0-1.786-.136-2.265-.393-.48-.256-.855-.632-1.111-1.111-.257-.48-.393-.954-.393-2.265V6.77c0-1.31.136-1.786.393-2.265.256-.48.632-.855 1.111-1.111.48-.257.954-.393 2.265-.393z" transform="translate(-638 -409) translate(478 120) translate(160 289)"/> </g> </g> </g> </g> </svg> 