<svg width="24" height="24" viewBox="0 0 24 24" fill="none" xmlns="http://www.w3.org/2000/svg"> <path fill-rule="evenodd" clip-rule="evenodd" d="M17.82 14.9402C16.8477 14.1652 15.861 13.6957 14.9006 14.4696L14.3272 14.9373C13.9077 15.2768 13.1276 16.8632 10.1115 13.6296C7.0961 10.4001 8.89053 9.89723 9.31071 9.56064L9.88729 9.09234C10.8426 8.31672 10.4821 7.34032 9.79308 6.33523L9.37729 5.72644C8.68514 4.7237 7.93145 4.06515 6.97362 4.8396L6.45608 5.26107C6.03275 5.54849 4.84944 6.48275 4.56241 8.2576C4.21697 10.3872 5.30669 12.8259 7.80332 15.5016C10.2968 18.1785 12.7382 19.5231 15.0508 19.4997C16.9727 19.4804 18.1334 18.5192 18.4964 18.1697L19.0158 17.7477C19.9712 16.9738 19.3776 16.1859 18.4047 15.4091L17.82 14.9402Z" stroke="#4D5054" stroke-width="1.3" stroke-linecap="round" stroke-linejoin="round"/> </svg> 