<svg xmlns="http://www.w3.org/2000/svg" width="24" height="24" viewBox="0 0 24 24"> <g fill="none" fill-rule="evenodd"> <g> <g> <g> <path d="M0 0H24V24H0z" transform="translate(-558 -929) translate(478 120) translate(80 809)"/> <path stroke="#595F6B" stroke-linecap="round" stroke-linejoin="round" stroke-width="1.3" d="M5.536 10.781l13.138-4.636c.52-.184 1.092.089 1.275.61.07.195.076.408.019.607l-3.095 10.833c-.152.53-.705.838-1.236.687-.097-.028-.189-.07-.273-.125l-4.752-3.108h0L9.5 20.5l-.98-6.072-3.155-1.84c-.477-.278-.638-.89-.36-1.368.12-.204.308-.36.531-.439zM8.5 14.5L19.5 6.5M10.5 15.5L19.5 6.5M9.5 20.5L13.5 17.5" transform="translate(-558 -929) translate(478 120) translate(80 809)"/> </g> </g> </g> </g> </svg> 