<svg xmlns="http://www.w3.org/2000/svg" width="24" height="24" viewBox="0 0 24 24"> <g fill="none" fill-rule="evenodd"> <g> <g> <g> <path d="M0 0H24V24H0z" transform="translate(-518 -729) translate(478 120) translate(40 609)"/> <path stroke="#595F6B" stroke-linecap="round" stroke-linejoin="round" stroke-width="1.3" d="M12.805 3.5c1.888 0 2.9.253 3.817.728.917.475 1.636 1.171 2.127 2.06.49.887.751 1.868.751 3.697v1.56c0 1.828-.261 2.809-.751 3.697-.49.888-1.21 1.585-2.127 2.06-.352.182-.72.332-1.145.447-.683.26-1.288.685-1.755 1.238l-.997 1.18c-.327.388-.918.445-1.319.128-.048-.039-.092-.081-.132-.128l-.957-1.133c-.487-.577-1.118-1.022-1.83-1.296-.411-.113-.767-.26-1.11-.437-.916-.474-1.635-1.171-2.126-2.06-.49-.887-.751-1.868-.751-3.697v-1.56c0-1.828.261-2.809.751-3.697.49-.888 1.21-1.584 2.127-2.06.916-.474 1.929-.727 3.817-.727h1.61z" transform="translate(-518 -729) translate(478 120) translate(40 609)"/> <path stroke="#595F6B" stroke-linecap="round" stroke-linejoin="round" stroke-width="1.3" d="M11.816 8.5h.368c.594 0 .967.093 1.293.267.326.174.582.43.756.756.174.326.267.699.267 1.293v.368c0 .594-.093.967-.267 1.293-.174.326-.43.582-.756.756-.326.174-.699.267-1.293.267h-.368c-.594 0-.967-.093-1.293-.267-.326-.174-.582-.43-.756-.756-.174-.326-.267-.699-.267-1.293v-.368c0-.594.093-.967.267-1.293.174-.326.43-.582.756-.756.326-.174.699-.267 1.293-.267z" transform="translate(-518 -729) translate(478 120) translate(40 609)"/> </g> </g> </g> </g> </svg> 