<svg xmlns="http://www.w3.org/2000/svg" width="24" height="24" viewBox="0 0 24 24"> <g fill="none" fill-rule="evenodd"> <g> <g> <g> <path d="M0 0H24V24H0z" transform="translate(-478 -849) translate(478 120) translate(0 729)"/> <path fill="#464B55" d="M12 6c.552 0 1 .448 1 1v4h4c.552 0 1 .448 1 1s-.448 1-1 1h-4v4c0 .552-.448 1-1 1s-1-.448-1-1v-4H7c-.552 0-1-.448-1-1s.448-1 1-1h4V7c0-.552.448-1 1-1z" transform="translate(-478 -849) translate(478 120) translate(0 729)"/> </g> </g> </g> </g> </svg> 