<svg xmlns="http://www.w3.org/2000/svg" width="24" height="24" viewBox="0 0 24 24"> <g fill="none" fill-rule="evenodd"> <g> <g> <g> <path d="M0 0H24V24H0z" transform="translate(-638 -849) translate(478 120) translate(160 729)"/> <g fill="#929BA9"> <path d="M8.859 0c2.014 0 3.094.278 4.072.801.977.523 1.745 1.29 2.268 2.268.523.978.801 2.058.801 4.072V8.86c0 2.014-.278 3.094-.801 4.072-.523.977-1.29 1.745-2.268 2.268-.978.523-2.058.801-4.072.801H7.14c-2.014 0-3.094-.278-4.072-.801-.977-.523-1.745-1.29-2.268-2.268C.278 11.953 0 10.873 0 8.859V7.14C0 5.127.278 4.047.801 3.07c.523-.977 1.29-1.745 2.268-2.268C4.047.278 5.127 0 7.141 0H8.86zM8 11c-.552 0-1 .448-1 1s.448 1 1 1 1-.448 1-1-.448-1-1-1zm0-7.747c-1.495 0-2.75 1.02-2.75 2.747 0 .414.336.75.75.75s.75-.336.75-.75c0-.822.523-1.247 1.25-1.247.952 0 1.25.206 1.25 1.247 0 .417-.073.503-.587.79l-.03.017-.162.094C7.632 7.403 7.25 7.933 7.25 9c0 .414.336.75.75.75s.75-.336.75-.75c0-.481.088-.589.616-.884l.03-.017.17-.098c.818-.49 1.184-.987 1.184-2.001 0-2.01-1.061-2.747-2.75-2.747z" transform="translate(-638 -849) translate(478 120) translate(160 729) translate(4 4)"/> </g> </g> </g> </g> </g> </svg> 