<svg xmlns="http://www.w3.org/2000/svg" width="24" height="24" viewBox="0 0 24 24"> <g fill="none" fill-rule="evenodd"> <g> <g> <g> <path d="M0 0H24V24H0z" transform="translate(-558 -1049) translate(478 120) translate(80 929)"/> <path stroke="#595F6B" stroke-linecap="round" stroke-linejoin="round" stroke-width="1.3" d="M14.1 10.5h2.4c1.105 0 2 .895 2 2v5h0M7.1 6.5h4.4c1.105 0 2 .895 2 2v10h0-8V8.1c0-.884.716-1.6 1.6-1.6zM3.5 18.5L20.5 18.5M7.5 9.5L8.5 9.5M10.5 9.5L11.5 9.5M7.5 11.5L8.5 11.5M10.5 11.5L11.5 11.5M7.5 13.5L8.5 13.5M10.5 13.5L11.5 13.5M7.5 15.5L8.5 15.5M10.5 15.5L11.5 15.5M15.5 13.5L16.5 13.5M15.5 15.5L16.5 15.5" transform="translate(-558 -1049) translate(478 120) translate(80 929)"/> </g> </g> </g> </g> </svg> 