<svg xmlns="http://www.w3.org/2000/svg" width="24" height="24" viewBox="0 0 24 24"> <g fill="none" fill-rule="evenodd"> <g> <g transform="translate(-601 -1177) translate(601 1177)"> <path d="M0 0H24V24H0z"/> <circle cx="12.5" cy="12.5" r="8" stroke="#595F6B" stroke-linecap="round" stroke-linejoin="round" stroke-width="1.3"/> <path stroke="#595F6B" stroke-linecap="round" stroke-linejoin="round" stroke-width="1.3" d="M9.5 5.5v-1c0-1.105.895-2 2-2h2c1.105 0 2 .895 2 2v1h0M4.5 12.5h2m12 0h2M12.5 4.5v2m0 12v2M18.157 6.843l-1.414 1.414m-8.486 8.486l-1.414 1.414M6.843 6.843l1.414 1.414m8.486 8.486l1.414 1.414M12.5 15.5L12.5 9.5 10.5 10.5"/> </g> </g> </g> </svg> 