<svg xmlns="http://www.w3.org/2000/svg" width="24" height="24" viewBox="0 0 24 24"> <g fill="none" fill-rule="evenodd"> <g> <g> <g> <path d="M0 0H24V24H0z" transform="translate(-518 -289) translate(478 120) translate(40 169)"/> <path stroke="#595F6B" stroke-linecap="round" stroke-linejoin="round" stroke-width="1.3" d="M7.782 4.5h1.436c.446 0 .607.046.77.134.163.087.291.215.378.378.088.163.134.324.134.77v12.436c0 .446-.046.607-.134.77-.087.163-.215.291-.378.378-.163.088-.324.134-.77.134H7.782c-.446 0-.607-.046-.77-.134-.163-.087-.291-.215-.378-.378-.088-.163-.134-.324-.134-.77V5.782c0-.446.046-.607.134-.77.087-.163.215-.291.378-.378.163-.088.324-.134.77-.134zM14.782 4.5h1.436c.446 0 .607.046.77.134.163.087.291.215.378.378.088.163.134.324.134.77v6.436c0 .446-.046.607-.134.77-.087.163-.215.291-.378.378-.163.088-.324.134-.77.134h-1.436c-.446 0-.607-.046-.77-.134-.163-.087-.291-.215-.378-.378-.088-.163-.134-.324-.134-.77V5.782c0-.446.046-.607.134-.77.087-.163.215-.291.378-.378.163-.088.324-.134.77-.134z" transform="translate(-518 -289) translate(478 120) translate(40 169)"/> </g> </g> </g> </g> </svg> 