<svg xmlns="http://www.w3.org/2000/svg" width="24" height="24" viewBox="0 0 24 24"> <g fill="none" fill-rule="evenodd"> <g> <g> <g> <path d="M0 0H24V24H0z" transform="translate(-518 -489) translate(478 120) translate(40 369)"/> <path stroke="#595F6B" stroke-linecap="round" stroke-linejoin="round" stroke-width="1.3" d="M7.5 4.5h6.172c.53 0 1.039.21 1.414.586l2.828 2.828c.375.375.586.884.586 1.414V17.5c0 1.105-.895 2-2 2h-9c-1.105 0-2-.895-2-2v-11c0-1.105.895-2 2-2z" transform="translate(-518 -489) translate(478 120) translate(40 369)"/> <path stroke="#595F6B" stroke-linecap="round" stroke-linejoin="round" stroke-width="1.3" d="M13.502 4.5v3c0 1.105.895 2 2 2H18.5M9.5 8.5L10.5 8.5M9.5 15.5L14.5 15.5M9.5 12.5L14.5 12.5" transform="translate(-518 -489) translate(478 120) translate(40 369)"/> </g> </g> </g> </g> </svg> 