<svg xmlns="http://www.w3.org/2000/svg" width="24" height="24" viewBox="0 0 24 24"> <g fill="none" fill-rule="evenodd"> <g> <g> <g> <g> <path d="M0 0H24V24H0z" transform="translate(-638 -1121) translate(478 120) translate(160 1001) matrix(1 0 0 -1 0 24)"/> <path stroke="#595F6B" stroke-linecap="round" stroke-linejoin="round" stroke-width="1.3" d="M12 17.5l-3.497 1.838c-.488.257-1.093.07-1.35-.42-.102-.194-.138-.417-.1-.634l.667-3.893h0l-2.829-2.758c-.395-.385-.403-1.018-.018-1.414.154-.157.355-.26.573-.292l3.909-.568h0l1.748-3.542c.245-.495.844-.699 1.34-.454.197.097.356.257.454.454l1.748 3.542h0l3.91.568c.546.08.925.587.845 1.134-.031.218-.134.419-.291.572l-2.83 2.758h0l.669 3.893c.093.544-.273 1.061-.817 1.155-.217.037-.44.002-.634-.1L12 17.5h0z" transform="translate(-638 -1121) translate(478 120) translate(160 1001) matrix(1 0 0 -1 0 24)"/> </g> </g> </g> </g> </g> </svg> 