<svg xmlns="http://www.w3.org/2000/svg" width="24" height="24" viewBox="0 0 24 24"> <g fill="none" fill-rule="evenodd"> <g> <g> <g> <path d="M0 0H24V24H0z" transform="translate(-678 -929) translate(478 120) translate(200 809)"/> <path stroke="#595F6B" stroke-linecap="round" stroke-linejoin="round" stroke-width="1.3" d="M9.5 4.5h7c2.21 0 4 1.79 4 4v7c0 2.21-1.79 4-4 4h-7c-2.21 0-4-1.79-4-4v-7c0-2.21 1.79-4 4-4z" transform="translate(-678 -929) translate(478 120) translate(200 809)"/> <path stroke="#595F6B" stroke-linecap="round" stroke-linejoin="round" stroke-width="1.3" d="M11.5 9.5h3c.552 0 1 .448 1 1v3c0 .552-.448 1-1 1h-3c-.552 0-1-.448-1-1v-3c0-.552.448-1 1-1z" transform="translate(-678 -929) translate(478 120) translate(200 809)"/> </g> </g> </g> </g> </svg> 