<svg xmlns="http://www.w3.org/2000/svg" width="24" height="24" viewBox="0 0 24 24"> <g fill="none" fill-rule="evenodd"> <g> <g> <g transform="translate(-478 -769) translate(478 120) translate(0 649)"> <path d="M0 0H24V24H0z"/> <circle cx="12" cy="12" r="7.5" fill="#FFF" stroke="#464B55" stroke-linejoin="round" stroke-width="1.3"/> <path fill="#474C56" stroke="#464B55" stroke-linejoin="round" stroke-width="1.3" d="M6.5 10.5c0 3.866 3.134 7 7 7 2.169 0 4.108-.986 5.392-2.535C17.742 17.633 15.089 19.5 12 19.5c-4.142 0-7.5-3.358-7.5-7.5 0-3.09 1.87-5.744 4.539-6.893C7.488 6.39 6.5 8.33 6.5 10.5z"/> <circle cx="12" cy="13" r="1" stroke="#595F6B" stroke-linecap="round" stroke-linejoin="round" stroke-width="1.3"/> <circle cx="11.5" cy="7.5" r="1" stroke="#595F6B" stroke-linecap="round" stroke-linejoin="round" stroke-width="1.3"/> <circle cx="15.5" cy="11.5" r="1" stroke="#595F6B" stroke-linecap="round" stroke-linejoin="round" stroke-width="1.3"/> </g> </g> </g> </g> </svg> 