<svg xmlns="http://www.w3.org/2000/svg" width="24" height="24" viewBox="0 0 24 24"> <g fill="none" fill-rule="evenodd"> <g> <g> <g> <path d="M0 0H24V24H0z" transform="translate(-598 -649) translate(478 120) translate(120 529)"/> <path stroke="#595F6B" stroke-linecap="round" stroke-linejoin="round" stroke-width="1.3" d="M6.5 7.5h11c1.105 0 2 .895 2 2v7c0 1.105-.895 2-2 2h-11c-1.105 0-2-.895-2-2v-7c0-1.105.895-2 2-2zM10.5 4.5h3c1.105 0 2 .895 2 2v1h0-7v-1c0-1.105.895-2 2-2z" transform="translate(-598 -649) translate(478 120) translate(120 529)"/> <path stroke="#595F6B" stroke-linecap="round" stroke-linejoin="round" stroke-width="1.3" d="M5.5 11.5L12 13.5 18.5 11.5" transform="translate(-598 -649) translate(478 120) translate(120 529)"/> <path stroke="#595F6B" stroke-linecap="round" stroke-linejoin="round" stroke-width="1.3" d="M11.5 11.5h1c.552 0 1 .448 1 1v1c0 .552-.448 1-1 1h-1c-.552 0-1-.448-1-1v-1c0-.552.448-1 1-1z" transform="translate(-598 -649) translate(478 120) translate(120 529)"/> <g> <path fill="#FFF" d="M9.846 1.428l.943.943c.39.39.39 1.024 0 1.414L4.425 10.15.495 11.72l1.572-3.928 6.364-6.365c.39-.39 1.024-.39 1.415 0z" transform="translate(-598 -649) translate(478 120) translate(120 529) translate(11 9)"/> <path stroke="#595F6B" stroke-linecap="round" stroke-linejoin="round" stroke-width="1.3" d="M9.846 1.428l.943.943c.39.39.39 1.024 0 1.414L4.425 10.15h0L.495 11.72l1.572-3.928 6.364-6.365c.39-.39 1.024-.39 1.415 0zM7.984 2.825L9.317 4.158M2.674 8.284L4.008 9.618" transform="translate(-598 -649) translate(478 120) translate(120 529) translate(11 9)"/> </g> </g> </g> </g> </g> </svg> 