<svg xmlns="http://www.w3.org/2000/svg" width="24" height="24" viewBox="0 0 24 24"> <g fill="none" fill-rule="evenodd"> <g> <g> <g> <path d="M0 0H24V24H0z" transform="translate(-678 -649) translate(478 120) translate(200 529)"/> <path stroke="#595F6B" stroke-linecap="round" stroke-linejoin="round" stroke-width="1.3" d="M7.5 4.5h9c1.657 0 3 1.343 3 3v9c0 1.657-1.343 3-3 3h-9c-1.657 0-3-1.343-3-3v-9c0-1.657 1.343-3 3-3z" transform="translate(-678 -649) translate(478 120) translate(200 529)"/> <path stroke="#595F6B" stroke-linecap="round" stroke-linejoin="round" stroke-width="1.3" d="M14.5 6.5c.552 0 1 .448 1 1v9c0 .552-.448 1-1 1s-1-.448-1-1v-9c0-.552.448-1 1-1zM9 11.5c.276 0 .5.224.5.5s-.224.5-.5.5-.5-.224-.5-.5.224-.5.5-.5zM14.5 17.5L14.5 18.5M14.5 5.5L14.5 6.5" transform="translate(-678 -649) translate(478 120) translate(200 529)"/> </g> </g> </g> </g> </svg> 