<svg xmlns="http://www.w3.org/2000/svg" width="24" height="24" viewBox="0 0 24 24"> <g fill="none" fill-rule="evenodd"> <g> <g> <g> <path d="M1 0H25V24H1z" transform="translate(-598 -209) translate(478 120) translate(119 89)"/> <path stroke="#595F6B" stroke-linecap="round" stroke-linejoin="round" stroke-width="1.3" d="M12.782 4.776l-7.255 2.79c-.516.199-.773.778-.575 1.293.149.386.52.641.934.641h15.228c.553 0 1-.448 1-1 0-.414-.255-.785-.64-.933l-7.256-2.79c-.462-.179-.974-.179-1.436 0zM5.5 18.5L21.5 18.5M10.5 17.5L12.5 17.5M14.5 17.5L16.5 17.5M18.5 17.5L20.5 17.5M10.5 10.5L12.5 10.5M14.5 10.5L16.5 10.5M18.5 10.5L20.5 10.5M6.5 10.5L8.5 10.5M7.5 17.5L7.5 10.5M11.5 17.5L11.5 10.5M15.5 17.5L15.5 10.5M19.5 17.5L19.5 10.5M6.5 17.5L8.5 17.5" transform="translate(-598 -209) translate(478 120) translate(119 89)"/> </g> </g> </g> </g> </svg> 