<svg xmlns="http://www.w3.org/2000/svg" width="24" height="24" viewBox="0 0 24 24"> <g fill="none" fill-rule="evenodd"> <g> <g> <g transform="translate(-518 -569) translate(478 120) translate(40 449)"> <path d="M0 0H24V24H0z"/> <path stroke="#595F6B" stroke-linecap="round" stroke-linejoin="round" stroke-width="1.3" d="M11.5 16.5c2.449 0 4.726-.91 6.832-2.73h0c1.254-1.084 1.392-2.978.308-4.232-.095-.11-.198-.213-.308-.308C16.226 7.41 13.95 6.5 11.5 6.5s-4.726.91-6.832 2.73h0c-1.254 1.084-1.392 2.978-.308 4.232.095.11.198.213.308.308C6.774 15.59 9.05 16.5 11.5 16.5z"/> <circle cx="11.5" cy="11.5" r="2.5" stroke="#595F6B" stroke-linecap="round" stroke-linejoin="round" stroke-width="1.3"/> </g> </g> </g> </g> </svg> 