<svg xmlns="http://www.w3.org/2000/svg" width="24" height="24" viewBox="0 0 24 24"> <g fill="none" fill-rule="evenodd"> <g> <g> <g> <path d="M0 0H24V24H0z" transform="translate(-638 -609) translate(478 120) translate(160 489)"/> <path stroke="#595F6B" stroke-linecap="round" stroke-linejoin="round" stroke-width="1.3" d="M6.5 4.5h11c1.105 0 2 .895 2 2v11c0 1.105-.895 2-2 2h-11c-1.105 0-2-.895-2-2v-11c0-1.105.895-2 2-2z" transform="translate(-638 -609) translate(478 120) translate(160 489)"/> <path fill="#FFF" d="M4.68 7.5h14.64c.552 0 1 .448 1 1 0 .055-.005.11-.014.164L19.5 13.5v4c0 1.105-.895 2-2 2h-11c-1.105 0-2-.895-2-2v-4l-.806-4.836c-.09-.544.277-1.06.822-1.15.054-.01.11-.014.164-.014z" transform="translate(-638 -609) translate(478 120) translate(160 489)"/> <path stroke="#595F6B" stroke-linecap="round" stroke-linejoin="round" stroke-width="1.3" d="M4.68 7.5h14.64c.552 0 1 .448 1 1 0 .055-.005.11-.014.164L19.5 13.5h0v4c0 1.105-.895 2-2 2h-11c-1.105 0-2-.895-2-2v-4h0l-.806-4.836c-.09-.544.277-1.06.822-1.15.054-.01.11-.014.164-.014zM4.5 12.5L19.5 12.5" transform="translate(-638 -609) translate(478 120) translate(160 489)"/> <path stroke="#595F6B" stroke-linecap="round" stroke-linejoin="round" stroke-width="1.3" d="M14.5 16.5L14.5 9.5 12.5 10.5M10.5 16.5L10.5 9.5 8.5 10.5" transform="translate(-638 -609) translate(478 120) translate(160 489)"/> </g> </g> </g> </g> </svg> 