<svg width="24" height="24" viewBox="0 0 24 24" fill="none" xmlns="http://www.w3.org/2000/svg"> <path d="M12 14.5C13.3807 14.5 14.5 13.3807 14.5 12C14.5 10.6193 13.3807 9.5 12 9.5C10.6193 9.5 9.5 10.6193 9.5 12C9.5 13.3807 10.6193 14.5 12 14.5Z" stroke="#4D5054" stroke-width="1.3" stroke-linecap="round" stroke-linejoin="round"/> <path fill-rule="evenodd" clip-rule="evenodd" d="M12 4.5C12.5408 4.5 13.0351 4.80553 13.277 5.2892L13.5784 5.8921C13.6799 6.095 13.741 6.31516 13.7591 6.54041C14.0565 6.63525 14.3434 6.75466 14.6175 6.89549L14.5131 6.99127C14.7068 6.79755 14.9429 6.6516 15.2028 6.56496L15.8423 6.35181C16.3553 6.1808 16.9209 6.31432 17.3033 6.6967C17.6857 7.07908 17.8192 7.64468 17.6482 8.15769L17.435 8.79716C17.3633 9.01238 17.2509 9.21133 17.1043 9.38337C17.2453 9.65657 17.3647 9.94347 17.4605 10.241L17.3187 10.2353C17.5927 10.2353 17.8629 10.2991 18.1079 10.4216L18.7108 10.723C19.1945 10.9649 19.5 11.4592 19.5 12C19.5 12.5408 19.1945 13.0351 18.7108 13.277L18.1079 13.5784C17.905 13.6799 17.6848 13.741 17.4596 13.7591C17.3647 14.0565 17.2453 14.3434 17.1045 14.6175L17.0087 14.5131C17.2024 14.7068 17.3484 14.9429 17.435 15.2028L17.6482 15.8423C17.8192 16.3553 17.6857 16.9209 17.3033 17.3033C16.9209 17.6857 16.3553 17.8192 15.8423 17.6482L15.2028 17.435C14.9876 17.3633 14.7887 17.2509 14.6166 17.1043C14.3434 17.2453 14.0565 17.3647 13.759 17.4605L13.7647 17.3187C13.7647 17.5927 13.7009 17.8629 13.5784 18.1079L13.277 18.7108C13.0351 19.1945 12.5408 19.5 12 19.5C11.4592 19.5 10.9649 19.1945 10.723 18.7108L10.4216 18.1079C10.3201 17.905 10.259 17.6848 10.2409 17.4596C9.94347 17.3647 9.65657 17.2453 9.38248 17.1045L9.48694 17.0087C9.29322 17.2024 9.05706 17.3484 8.79716 17.435L8.15769 17.6482C7.64468 17.8192 7.07908 17.6857 6.6967 17.3033C6.31432 16.9209 6.1808 16.3553 6.35181 15.8423L6.56496 15.2028C6.6367 14.9876 6.74913 14.7887 6.89566 14.6166C6.75466 14.3434 6.63525 14.0565 6.53949 13.759L6.6813 13.7647C6.40733 13.7647 6.13713 13.7009 5.8921 13.5784L5.2892 13.277C4.80553 13.0351 4.5 12.5408 4.5 12C4.5 11.4592 4.80553 10.9649 5.2892 10.723L5.8921 10.4216C6.095 10.3201 6.31516 10.259 6.54041 10.2409C6.63525 9.94347 6.75466 9.65657 6.89549 9.38248L6.99127 9.48694C6.79755 9.29322 6.6516 9.05706 6.56496 8.79716L6.35181 8.15769C6.1808 7.64468 6.31432 7.07908 6.6967 6.6967C7.07908 6.31432 7.64468 6.1808 8.15769 6.35181L8.79716 6.56496C9.01238 6.6367 9.21133 6.74913 9.38337 6.89566C9.65657 6.75466 9.94347 6.63525 10.241 6.53949L10.2353 6.6813C10.2353 6.40733 10.2991 6.13713 10.4216 5.8921L10.723 5.2892C10.9649 4.80553 11.4592 4.5 12 4.5Z" stroke="#4D5054" stroke-width="1.3" stroke-linecap="round" stroke-linejoin="round"/> </svg> 