<svg xmlns="http://www.w3.org/2000/svg" width="24" height="24" viewBox="0 0 24 24"> <g fill="none" fill-rule="evenodd"> <g> <g> <g> <path d="M0 0H24V24H0z" transform="translate(-518 -849) translate(478 120) translate(40 729)"/> <g stroke="#595F6B" stroke-linecap="round" stroke-linejoin="round" stroke-width="1.3"> <path d="M10.15 1.264c.233.232.336.563.277.886L9.426 7.657l3.786-.378c.55-.055 1.04.346 1.095.895.03.299-.076.595-.288.807l-7.755 7.755c-.39.39-1.024.39-1.415 0-.232-.232-.335-.563-.276-.886l1.001-5.507-3.786.378c-.55.055-1.04-.346-1.095-.895-.03-.299.076-.595.288-.807l7.755-7.755c.39-.39 1.024-.39 1.415 0z" transform="translate(-518 -849) translate(478 120) translate(40 729) translate(4 3)"/> </g> <g stroke="#595F6B" stroke-linecap="round" stroke-linejoin="round" stroke-width="1.3"> <path d="M2 0L2 4M0 2L4 2" transform="translate(-518 -849) translate(478 120) translate(40 729) translate(17.5 3.5)"/> </g> </g> </g> </g> </g> </svg> 