<svg xmlns="http://www.w3.org/2000/svg" width="24" height="24" viewBox="0 0 24 24"> <g fill="none" fill-rule="evenodd"> <g> <g> <g> <path d="M0 0H24V24H0z" transform="translate(-678 -769) translate(478 120) translate(200 649)"/> <path stroke="#595F6B" stroke-linecap="round" stroke-linejoin="round" stroke-width="1.3" d="M16.5 4.5c2.21 0 4 1.79 4 4s-1.79 4-4 4-4-1.79-4-4 1.79-4 4-4zM6.5 9.5c1.105 0 2 .895 2 2s-.895 2-2 2-2-.895-2-2 .895-2 2-2zM11.5 15.5h1c1.105 0 2 .895 2 2v1c0 1.105-.895 2-2 2h-1c-1.105 0-2-.895-2-2v-1c0-1.105.895-2 2-2z" transform="translate(-678 -769) translate(478 120) translate(200 649)"/> </g> </g> </g> </g> </svg> 