<svg xmlns="http://www.w3.org/2000/svg" width="24" height="24" viewBox="0 0 24 24"> <g fill="none" fill-rule="evenodd"> <g> <g> <g> <g> <path d="M0 0H24V24H0z" transform="translate(-558 -1121) translate(478 120) translate(80 1001) matrix(1 0 0 -1 0 24)"/> <path stroke="#464B55" stroke-width="1.3" d="M5.5 14.5v3c0 1.105.895 2 2 2h10c1.105 0 2-.895 2-2v-3h0" transform="translate(-558 -1121) translate(478 120) translate(80 1001) matrix(1 0 0 -1 0 24)"/> <path stroke="#464B55" stroke-linecap="round" stroke-width="1.3" d="M12.5 14.5L12.5 5.5" transform="translate(-558 -1121) translate(478 120) translate(80 1001) matrix(1 0 0 -1 0 24)"/> <path stroke="#464B55" stroke-linecap="round" stroke-linejoin="round" stroke-width="1.3" d="M8 10L12.5 14.5 17 10" transform="translate(-558 -1121) translate(478 120) translate(80 1001) matrix(1 0 0 -1 0 24)"/> </g> </g> </g> </g> </g> </svg> 