<svg xmlns="http://www.w3.org/2000/svg" xmlns:xlink="http://www.w3.org/1999/xlink" width="24" height="24" viewBox="0 0 24 24"> <defs> <path id="vwmhqyyvfa" d="M0 0L7 0 12.5 15 0 15z"/> <path id="t8yk9k701c" d="M12.569 0L0 0 5.5 15 12.569 15z"/> </defs> <g fill="none" fill-rule="evenodd"> <g> <g> <g> <path d="M0 0H24V24H0z" transform="translate(-558 -569) translate(478 120) translate(80 449)"/> <g transform="translate(-558 -569) translate(478 120) translate(80 449) translate(.5 4.5)"> <mask id="p9wrxutosb" fill="#fff"> <use xlink:href="#vwmhqyyvfa"/> </mask> <path stroke="#464B55" stroke-width="1.3" d="M11 12c2.449 0 4.726-.91 6.832-2.73h0c1.254-1.084 1.392-2.978.308-4.232-.095-.11-.198-.213-.308-.308C15.726 2.91 13.45 2 11 2s-4.726.91-6.832 2.73h0C2.914 5.814 2.776 7.708 3.86 8.962c.095.11.198.213.308.308C6.274 11.09 8.55 12 11 12z" mask="url(#p9wrxutosb)"/> <circle cx="11" cy="7" r="2.5" fill="#FFF" stroke="#464B55" stroke-width="1.3" mask="url(#p9wrxutosb)"/> </g> <g transform="translate(-558 -569) translate(478 120) translate(80 449) translate(10.5 4.5)"> <mask id="o84udwqgvd" fill="#fff"> <use xlink:href="#t8yk9k701c"/> </mask> <path stroke="#464B55" stroke-width="1.3" d="M1 12c2.449 0 4.726-.91 6.832-2.73h0c1.254-1.084 1.392-2.978.308-4.232-.095-.11-.198-.213-.308-.308C5.726 2.91 3.45 2 1 2s-4.726.91-6.832 2.73h0c-1.254 1.084-1.392 2.978-.308 4.232.095.11.198.213.308.308C-3.726 11.09-1.45 12 1 12z" mask="url(#o84udwqgvd)"/> <circle cx="1" cy="7" r="2.5" fill="#FFF" stroke="#464B55" stroke-width="1.3" mask="url(#o84udwqgvd)"/> </g> <path stroke="#595F6B" stroke-linecap="round" stroke-linejoin="round" stroke-width="1.3" d="M8.5 3.5L14.5 19.5" transform="translate(-558 -569) translate(478 120) translate(80 449)"/> </g> </g> </g> </g> </svg> 