<svg width="24" height="24" viewBox="0 0 24 24" fill="none" xmlns="http://www.w3.org/2000/svg"> <path d="M6.5 14.5C7.60457 14.5 8.5 15.3954 8.5 16.5C8.5 17.6046 7.60457 18.5 6.5 18.5C5.39543 18.5 4.5 17.6046 4.5 16.5C4.5 15.3954 5.39543 14.5 6.5 14.5Z" stroke="#4D5054" stroke-width="1.3" stroke-linecap="round" stroke-linejoin="round"/> <path d="M17.5 9.5C18.6046 9.5 19.5 10.3954 19.5 11.5C19.5 12.6046 18.6046 13.5 17.5 13.5C16.3954 13.5 15.5 12.6046 15.5 11.5C15.5 10.3954 16.3954 9.5 17.5 9.5Z" stroke="#4D5054" stroke-width="1.3" stroke-linecap="round" stroke-linejoin="round"/> <path d="M6.5 4.5C7.60457 4.5 8.5 5.39543 8.5 6.5C8.5 7.60457 7.60457 8.5 6.5 8.5C5.39543 8.5 4.5 7.60457 4.5 6.5C4.5 5.39543 5.39543 4.5 6.5 4.5Z" stroke="#4D5054" stroke-width="1.3" stroke-linecap="round" stroke-linejoin="round"/> <path d="M8.5 6.5C12.9978 6.5 10 11.5 15.5 11.5" stroke="#4D5054" stroke-width="1.3" stroke-linecap="round" stroke-linejoin="round"/> <path d="M8.5 16.5C12.9978 16.5 10 11.5 15.5 11.5" stroke="#4D5054" stroke-width="1.3" stroke-linecap="round" stroke-linejoin="round"/> </svg> 