<svg xmlns="http://www.w3.org/2000/svg" width="24" height="24" viewBox="0 0 24 24"> <g fill="none" fill-rule="evenodd"> <g> <g> <g> <path d="M0 0H24V24H0z" transform="translate(-478 -169) translate(478 120) translate(0 49)"/> <path stroke="#595F6B" stroke-linecap="round" stroke-linejoin="round" stroke-width="1.3" d="M3.953 8.566l7.335-2.795c.459-.174.965-.174 1.424 0l7.335 2.795c.516.196.775.774.578 1.29-.101.266-.312.477-.578.578l-7.335 2.795c-.459.174-.965.174-1.424 0l-7.335-2.795c-.516-.196-.775-.774-.578-1.29.101-.266.312-.477.578-.578z" transform="translate(-478 -169) translate(478 120) translate(0 49)"/> <path stroke="#595F6B" stroke-linecap="round" stroke-linejoin="round" stroke-width="1.3" d="M6.5 11.5v3c.667 2 2.5 3 5.5 3s4.833-1 5.5-3v-3" transform="translate(-478 -169) translate(478 120) translate(0 49)"/> <path stroke="#595F6B" stroke-linecap="round" stroke-linejoin="round" stroke-width="1.3" d="M12 9.5L19.5 10.5 19.5 14.5" transform="translate(-478 -169) translate(478 120) translate(0 49)"/> </g> </g> </g> </g> </svg> 