<svg xmlns="http://www.w3.org/2000/svg" width="24" height="24" viewBox="0 0 24 24"> <g fill="none" fill-rule="evenodd"> <g> <g> <g> <path d="M0 0H24V24H0z" transform="translate(-638 -769) translate(478 120) translate(160 649)"/> <path stroke="#595F6B" stroke-linecap="round" stroke-linejoin="round" stroke-width="1.3" d="M14.5 5.5H16c.828 0 1.5.672 1.5 1.5v9.5c0 1.105-.895 2-2 2h-7c-1.105 0-2-.895-2-2v-9c0-1.105.895-2 2-2h1" transform="translate(-638 -769) translate(478 120) translate(160 649)"/> <path stroke="#595F6B" stroke-linecap="round" stroke-linejoin="round" stroke-width="1.3" d="M11 4.5h2c.828 0 1.5.672 1.5 1.5s-.672 1.5-1.5 1.5h-2c-.828 0-1.5-.672-1.5-1.5s.672-1.5 1.5-1.5zM9.5 11.5L14.5 11.5M9.5 14.5L14.5 14.5" transform="translate(-638 -769) translate(478 120) translate(160 649)"/> </g> </g> </g> </g> </svg> 