<svg xmlns="http://www.w3.org/2000/svg" width="24" height="24" viewBox="0 0 24 24"> <g fill="none" fill-rule="evenodd"> <g> <g> <g> <path d="M0 0H24V24H0z" transform="translate(-678 -489) translate(478 120) translate(200 369)"/> <path stroke="#595F6B" stroke-linecap="round" stroke-linejoin="round" stroke-width="1.3" d="M17.5 6.5v-1c0-1.105-.895-2-2-2h-10c-1.105 0-2 .895-2 2v13c0 1.105.895 2 2 2h10c1.105 0 2-.895 2-2v-5.936h0" transform="translate(-678 -489) translate(478 120) translate(200 369)"/> <g stroke="#595F6B" stroke-linecap="round" stroke-linejoin="round" stroke-width="1.3"> <path d="M11.707.707l1.586 1.586c.39.39.39 1.024 0 1.414L5 12h0L0 14l2-5L10.293.707c.39-.39 1.024-.39 1.414 0zM9.5 2.5L11.5 4.5M2.5 9.5L4.5 11.5" transform="translate(-678 -489) translate(478 120) translate(200 369) translate(9 4)"/> </g> <path stroke="#595F6B" stroke-linecap="round" stroke-linejoin="round" stroke-width="1.3" d="M6.5 7.5L12.5 7.5M6.286 10.5L9.714 10.5" transform="translate(-678 -489) translate(478 120) translate(200 369)"/> </g> </g> </g> </g> </svg> 