<svg xmlns="http://www.w3.org/2000/svg" xmlns:xlink="http://www.w3.org/1999/xlink" width="24" height="24" viewBox="0 0 24 24"> <defs> <circle id="6kev80floa" cx="7.5" cy="7.5" r="7.5"/> </defs> <g fill="none" fill-rule="evenodd"> <g> <g> <g> <path d="M0 0H24V24H0z" transform="translate(-558 -449) translate(478 120) translate(80 329)"/> <g transform="translate(-558 -449) translate(478 120) translate(80 329) translate(4.5 4.5)"> <g> <mask id="n4o7oeixjb" fill="#fff"> <use xlink:href="#6kev80floa"/> </mask> <g stroke="#595F6B" stroke-linecap="round" stroke-linejoin="round" stroke-width="1.3" mask="url(#n4o7oeixjb)"> <g> <path d="M6.5 6C7.88 6 9 4.433 9 2.5S7.88 0 6.5 0 4 .567 4 2.5 5.12 6 6.5 6zM7.113 8c1.6 0 2.513.232 3.328.668.815.436 1.455 1.075 1.89 1.89.358.668.578 1.402.646 2.526-.038.433-.12.662-.244.893-.174.326-.43.582-.756.756-.326.174-.65.267-1.54.267H2.563c-.892 0-1.215-.093-1.54-.267-.327-.174-.583-.43-.757-.756-.125-.233-.208-.465-.245-.905.07-1.119.29-1.85.645-2.514.436-.815 1.075-1.454 1.89-1.89C3.372 8.232 4.285 8 5.886 8h1.227z" transform="translate(1 3)"/> </g> </g> </g> <circle cx="7.5" cy="7.5" r="7.5" stroke="#595F6B" stroke-linecap="round" stroke-linejoin="round" stroke-width="1.3"/> </g> </g> </g> </g> </g> </svg> 