<svg xmlns="http://www.w3.org/2000/svg" width="24" height="24" viewBox="0 0 24 24"> <g fill="none" fill-rule="evenodd"> <g> <g> <g> <path d="M0 0H24V24H0z" transform="translate(-558 -689) translate(478 120) translate(80 569)"/> <path fill="#FFEBD9" d="M12.5 8.5c3.314 0 6 2.686 6 6s-2.686 6-6 6-6-2.686-6-6 2.686-6 6-6z" transform="translate(-558 -689) translate(478 120) translate(80 569)"/> <path stroke="#FF871E" stroke-linecap="round" stroke-linejoin="round" stroke-width="1.3" d="M12.5 8.5c3.314 0 6 2.686 6 6s-2.686 6-6 6-6-2.686-6-6 2.686-6 6-6z" transform="translate(-558 -689) translate(478 120) translate(80 569)"/> <path stroke="#FF871E" stroke-linecap="round" stroke-linejoin="round" stroke-width="1.3" d="M12.5 12.5c.552 0 1 .448 1 1s-.448 1-1 1-1-.448-1-1 .448-1 1-1zM8.5 9.5v-2c0-2.21 1.79-4 4-4s4 1.79 4 4v2h0M12.5 14.5L12.5 16.5" transform="translate(-558 -689) translate(478 120) translate(80 569)"/> </g> </g> </g> </g> </svg> 