<svg xmlns="http://www.w3.org/2000/svg" width="24" height="24" viewBox="0 0 24 24"> <g fill="none" fill-rule="evenodd"> <g> <g> <g> <path d="M0 0H24V24H0z" transform="translate(-678 -249) translate(478 120) translate(200 129)"/> <path stroke="#595F6B" stroke-linecap="round" stroke-linejoin="round" stroke-width="1.3" d="M5.782 6.5h6.436c.446 0 .607.046.77.134.163.087.291.215.378.378.088.163.134.324.134.77v1.436c0 .446-.046.607-.134.77-.087.163-.215.291-.378.378-.163.088-.324.134-.77.134H5.782c-.446 0-.607-.046-.77-.134-.163-.087-.291-.215-.378-.378-.088-.163-.134-.324-.134-.77V7.782c0-.446.046-.607.134-.77.087-.163.215-.291.378-.378.163-.088.324-.134.77-.134zM5.782 13.5h12.436c.446 0 .607.046.77.134.163.087.291.215.378.378.088.163.134.324.134.77v1.436c0 .446-.046.607-.134.77-.087.163-.215.291-.378.378-.163.088-.324.134-.77.134H5.782c-.446 0-.607-.046-.77-.134-.163-.087-.291-.215-.378-.378-.088-.163-.134-.324-.134-.77v-1.436c0-.446.046-.607.134-.77.087-.163.215-.291.378-.378.163-.088.324-.134.77-.134z" transform="translate(-678 -249) translate(478 120) translate(200 129)"/> </g> </g> </g> </g> </svg> 