<svg xmlns="http://www.w3.org/2000/svg" width="24" height="24" viewBox="0 0 24 24"> <g fill="none" fill-rule="evenodd"> <g> <g> <g> <path d="M0 0H24V24H0z" transform="translate(-558 -169) translate(478 120) translate(80 49)"/> <path stroke="#595F6B" stroke-linecap="round" stroke-linejoin="round" stroke-width="1.3" d="M16.5 4.5h-10c-1.105 0-2 .895-2 2v8.879c0 1.358.54 2.66 1.5 3.621.96.96 2.263 1.5 3.621 1.5H16.5c1.105 0 2-.895 2-2v-12c0-1.105-.895-2-2-2z" transform="translate(-558 -169) translate(478 120) translate(80 49)"/> <path stroke="#595F6B" stroke-linecap="round" stroke-linejoin="round" stroke-width="1.3" d="M4.5 13.5v1c0 1.105.895 2 2 2s2 .895 2 2 .895 2 2 2h1.008M11.5 8.5L11.5 14.5M8.504 11.5L14.5 11.5" transform="translate(-558 -169) translate(478 120) translate(80 49)"/> </g> </g> </g> </g> </svg> 