<svg xmlns="http://www.w3.org/2000/svg" width="24" height="24" viewBox="0 0 24 24"> <g fill="none" fill-rule="evenodd"> <g> <g> <g> <path d="M0 0H24V24H0z" transform="translate(-598 -929) translate(478 120) translate(120 809)"/> <path stroke="#595F6B" stroke-linecap="round" stroke-linejoin="round" stroke-width="1.3" d="M8.326 8.5h7.348c1.034 0 1.898.789 1.991 1.819l.637 7c.1 1.1-.711 2.073-1.811 2.173-.06.005-.12.008-.181.008H7.69c-1.105 0-2-.895-2-2 0-.06.003-.12.008-.181l.637-7c.093-1.03.957-1.819 1.991-1.819z" transform="translate(-598 -929) translate(478 120) translate(120 809)"/> <path stroke="#595F6B" stroke-linecap="round" stroke-linejoin="round" stroke-width="1.3" d="M8.5 11.5l.646-4.525C9.35 5.555 10.566 4.5 12 4.5c1.434 0 2.65 1.055 2.854 2.475L15.5 11.5h0" transform="translate(-598 -929) translate(478 120) translate(120 809)"/> </g> </g> </g> </g> </svg> 