<svg xmlns="http://www.w3.org/2000/svg" width="24" height="24" viewBox="0 0 24 24"> <g fill="none" fill-rule="evenodd"> <g> <g> <g> <path d="M0 0H24V24H0z" transform="translate(-598 -1049) translate(478 120) translate(120 929)"/> <path stroke="#595F6B" stroke-linecap="round" stroke-linejoin="round" stroke-width="1.3" d="M4.5 5.5h8c-.552 0-1 .448-1 1v10c0 1.105-.895 2-2 2h-2c-1.105 0-2-.895-2-2v-10c0-.552-.448-1-1-1zM13.5 10.5h6c-.552 0-1 .448-1 1v5c0 1.105-.895 2-2 2s-2-.895-2-2v-5c0-.552-.448-1-1-1z" transform="translate(-598 -1049) translate(478 120) translate(120 929)"/> </g> </g> </g> </g> </svg> 