<svg xmlns="http://www.w3.org/2000/svg" width="24" height="24" viewBox="0 0 24 24"> <g fill="none" fill-rule="evenodd"> <g> <g> <g> <path d="M0 0H24V24H0z" transform="translate(-638 -569) translate(478 120) translate(160 449)"/> <path stroke="#595F6B" stroke-linecap="round" stroke-linejoin="round" stroke-width="1.3" d="M10 3.5c1.38 0 2.5 1.12 2.5 2.5 0 .817-.392 1.543-.999 2l-.001.5h2c1.105 0 2 .895 2 2v2h.5c.425-.566 1.085-.946 1.836-.995L18 11.5c1.38 0 2.5 1.12 2.5 2.5s-1.12 2.5-2.5 2.5c-.817 0-1.543-.392-2-.999l-.5-.001v2c0 1.105-.895 2-2 2h-2l.001-1.5c.607-.457.999-1.183.999-2 0-1.38-1.12-2.5-2.5-2.5S7.5 14.62 7.5 16c0 .818.393 1.544 1 2v1.5h-2c-1.105 0-2-.895-2-2v-7c0-1.105.895-2 2-2h2V8c-.566-.425-.946-1.085-.995-1.836L7.5 6c0-1.38 1.12-2.5 2.5-2.5z" transform="translate(-638 -569) translate(478 120) translate(160 449)"/> <g stroke="#595F6B" stroke-linecap="round" stroke-linejoin="round" stroke-width="1.3"> <path d="M2 0L2 4M0 2L4 2" transform="translate(-638 -569) translate(478 120) translate(160 449) translate(17.5 3.5)"/> </g> </g> </g> </g> </g> </svg> 