<svg xmlns="http://www.w3.org/2000/svg" width="24" height="24" viewBox="0 0 24 24"> <g fill="none" fill-rule="evenodd"> <g> <g> <g transform="translate(-598 -289) translate(478 120) translate(120 169)"> <path d="M0 0H24V24H0z"/> <path stroke="#595F6B" stroke-linecap="round" stroke-linejoin="round" stroke-width="1.3" d="M8.5 8.5h10c1.105 0 2 .895 2 2v6c0 1.105-.895 2-2 2h-10c-1.105 0-2-.895-2-2v-6c0-1.105.895-2 2-2z"/> <path fill="#FFF" d="M6.5 6.5h10c1.105 0 2 .895 2 2v6c0 1.105-.895 2-2 2h-10c-1.105 0-2-.895-2-2v-6c0-1.105.895-2 2-2z"/> <path stroke="#595F6B" stroke-linecap="round" stroke-linejoin="round" stroke-width="1.3" d="M6.5 6.5h10c1.105 0 2 .895 2 2v6c0 1.105-.895 2-2 2h-10c-1.105 0-2-.895-2-2v-6c0-1.105.895-2 2-2z"/> <circle cx="11.5" cy="11.5" r="2" stroke="#595F6B" stroke-linecap="round" stroke-linejoin="round" stroke-width="1.3"/> <path stroke="#595F6B" stroke-linecap="round" stroke-linejoin="round" stroke-width="1.3" d="M6.5 9.5L7.501 9.5M15.5 13.5L16.501 13.5"/> </g> </g> </g> </g> </svg> 