<svg xmlns="http://www.w3.org/2000/svg" width="24" height="24" viewBox="0 0 24 24"> <g fill="none" fill-rule="evenodd"> <g> <g> <g> <path d="M0 0H24V24H0z" transform="translate(-518 -409) translate(478 120) translate(40 289)"/> <path stroke="#595F6B" stroke-linecap="round" stroke-linejoin="round" stroke-width="1.3" d="M8 4.5c1.933 0 3.5 1.567 3.5 3.5v2.5c0 .552-.448 1-1 1H8c-1.933 0-3.5-1.567-3.5-3.5S6.067 4.5 8 4.5zM17 4.5c-1.933 0-3.5 1.567-3.5 3.5v2.5c0 .552.448 1 1 1H17c1.933 0 3.5-1.567 3.5-3.5S18.933 4.5 17 4.5zM8 20.5c1.933 0 3.5-1.567 3.5-3.5v-2.5c0-.552-.448-1-1-1H8c-1.933 0-3.5 1.567-3.5 3.5s1.567 3.5 3.5 3.5zM17 20.5c-1.933 0-3.5-1.567-3.5-3.5v-2.5c0-.552.448-1 1-1H17c1.933 0 3.5 1.567 3.5 3.5s-1.567 3.5-3.5 3.5z" transform="translate(-518 -409) translate(478 120) translate(40 289)"/> </g> </g> </g> </g> </svg> 