<svg xmlns="http://www.w3.org/2000/svg" width="24" height="24" viewBox="0 0 24 24"> <g fill="none" fill-rule="evenodd"> <g> <g> <path d="M0 0H23.363V24H0z" transform="translate(-594 -1201) translate(594 1201)"/> <g fill="#C1C9D4"> <path d="M8.795 4.95V.822c0-.453-.358-.821-.8-.821-.226 0-.442.099-.594.272L.205 8.486C-.06 8.787-.07 9.24.18 9.554l7.197 9.036c.28.35.783.403 1.125.115.185-.155.293-.388.293-.634v-4.093c6.317.211 10.26 2.985 12.036 8.461.11.335.415.561.758.561.044 0 .087-.003.13-.01.386-.066.67-.409.67-.811 0-9.674-5.669-16.78-13.594-17.228z" transform="translate(-594 -1201) translate(594 1201) rotate(180 11.681 11.5)"/> </g> </g> </g> </g> </svg> 