<svg xmlns="http://www.w3.org/2000/svg" width="24" height="24" viewBox="0 0 24 24"> <g fill="none" fill-rule="evenodd"> <g> <g> <g> <path d="M0 0H24V24H0z" transform="translate(-478 -809) translate(478 120) translate(0 689)"/> <path stroke="#595F6B" stroke-linecap="round" stroke-linejoin="round" stroke-width="1.3" d="M6.5 6.5h11c1.105 0 2 .895 2 2v7c0 1.105-.895 2-2 2h-11c-1.105 0-2-.895-2-2v-7c0-1.105.895-2 2-2zM5.5 9.5L18.5 9.5M5.5 12.5L18.5 12.5M7.5 14.5L9.5 14.5" transform="translate(-478 -809) translate(478 120) translate(0 689)"/> </g> </g> </g> </g> </svg> 