<svg xmlns="http://www.w3.org/2000/svg" width="24" height="24" viewBox="0 0 24 24"> <g fill="none" fill-rule="evenodd"> <g> <g> <g> <path d="M0 0H24V24H0z" transform="translate(-518 -689) translate(478 120) translate(40 569)"/> <path stroke="#595F6B" stroke-linecap="round" stroke-linejoin="round" stroke-width="1.3" d="M12.5 8.5c3.314 0 6 2.686 6 6s-2.686 6-6 6-6-2.686-6-6 2.686-6 6-6z" transform="translate(-518 -689) translate(478 120) translate(40 569)"/> <path stroke="#595F6B" stroke-linecap="round" stroke-linejoin="round" stroke-width="1.3" d="M12.5 12.5c.552 0 1 .448 1 1s-.448 1-1 1-1-.448-1-1 .448-1 1-1zM8.536 10.098l-1-1.732C6.43 6.453 7.086 4.006 9 2.902c1.913-1.105 4.36-.45 5.464 1.464l1 1.732h0M12.5 14.5L12.5 16.5" transform="translate(-518 -689) translate(478 120) translate(40 569)"/> </g> </g> </g> </g> </svg> 