<svg xmlns="http://www.w3.org/2000/svg" width="24" height="24" viewBox="0 0 24 24"> <g fill="none" fill-rule="evenodd"> <g> <g> <g> <path d="M0 0H24V24H0z" transform="translate(-678 -209) translate(478 120) translate(200 89)"/> <g stroke="#595F6B" stroke-linecap="round" stroke-linejoin="round" stroke-width="1.3" transform="translate(-678 -209) translate(478 120) translate(200 89) translate(6 4)"> <path d="M6.5 2.5c2.21 0 4 1.79 4 4v3c0 1.105.895 2 2 2h0-12c1.105 0 2-.895 2-2v-3c0-2.21 1.79-4 4-4zM6.5.5c.552 0 1 .448 1 1v1h0-2v-1c0-.552.448-1 1-1z"/> <circle cx="6.5" cy="14.5" r="1"/> </g> </g> </g> </g> </g> </svg> 