<svg xmlns="http://www.w3.org/2000/svg" width="24" height="24" viewBox="0 0 24 24"> <g fill="none" fill-rule="evenodd"> <g> <g> <g> <path d="M0 0H24V24H0z" transform="translate(-598 -969) translate(478 120) translate(120 849)"/> <path stroke="#595F6B" stroke-linecap="round" stroke-linejoin="round" stroke-width="1.3" d="M9.5 4.5h7c2.21 0 4 1.79 4 4v7c0 2.21-1.79 4-4 4h-7c-2.21 0-4-1.79-4-4v-7c0-2.21 1.79-4 4-4z" transform="translate(-598 -969) translate(478 120) translate(120 849)"/> <path stroke="#595F6B" stroke-linecap="round" stroke-linejoin="round" stroke-width="1.3" d="M12.492 10.382c0-.342.252-.474.67-.474.598 0 1.354.202 1.952.562V8.404C14.461 8.114 13.815 8 13.161 8c-1.598 0-2.661.932-2.661 2.488 0 2.426 2.992 2.04 2.992 3.086 0 .404-.315.536-.756.536-.653 0-1.488-.299-2.15-.703v2.092c.733.352 1.473.501 2.15.501 1.638 0 2.764-.905 2.764-2.48-.008-2.619-3.008-2.153-3.008-3.138z" transform="translate(-598 -969) translate(478 120) translate(120 849)"/> </g> </g> </g> </g> </svg> 