<svg xmlns="http://www.w3.org/2000/svg" width="24" height="24" viewBox="0 0 24 24"> <g fill="none" fill-rule="evenodd"> <g> <g> <g> <path d="M0 0H24V24H0z" transform="translate(-638 -689) translate(478 120) translate(160 569)"/> <path stroke="#595F6B" stroke-linecap="round" stroke-linejoin="round" stroke-width="1.3" d="M14.5 8.5H14c-.276 0-.5-.224-.5-.5s.224-.5.5-.5h3c.276 0 .5.224.5.5s-.224.5-.5.5h-.5 0v4l2.741 3.838c.642.898.434 2.147-.465 2.79-.34.242-.746.372-1.162.372h-4.228c-1.104 0-2-.895-2-2 0-.417.13-.823.373-1.162L14.5 12.5h0v-4z" transform="translate(-638 -689) translate(478 120) translate(160 569)"/> <path fill="#FFF" d="M7.5 6.5c-.552 0-1-.448-1-1s.448-1 1-1h3c.552 0 1 .448 1 1s-.448 1-1 1v4l3.35 6.029c.536.965.188 2.183-.778 2.72-.297.164-.631.251-.971.251H5.899c-1.105 0-2-.895-2-2 0-.34.087-.674.252-.971L7.5 10.5v-4z" transform="translate(-638 -689) translate(478 120) translate(160 569)"/> <path stroke="#595F6B" stroke-linecap="round" stroke-linejoin="round" stroke-width="1.3" d="M7.5 6.5c-.552 0-1-.448-1-1s.448-1 1-1h3c.552 0 1 .448 1 1s-.448 1-1 1h0v4l3.35 6.029c.536.965.188 2.183-.778 2.72-.297.164-.631.251-.971.251H5.899c-1.105 0-2-.895-2-2 0-.34.087-.674.252-.971L7.5 10.5h0v-4z" transform="translate(-638 -689) translate(478 120) translate(160 569)"/> </g> </g> </g> </g> </svg> 