<svg xmlns="http://www.w3.org/2000/svg" width="24" height="24" viewBox="0 0 24 24"> <g fill="none" fill-rule="evenodd"> <g> <g> <g> <path d="M0 0H24V24H0z" transform="translate(-638 -369) translate(478 120) translate(160 249)"/> <path fill="#C1C9D4" d="M12 3c4.97 0 9 4.03 9 9s-4.03 9-9 9-9-4.03-9-9 4.03-9 9-9zM8.293 8.293c-.39.39-.39 1.024 0 1.414L10.585 12l-2.292 2.293c-.39.39-.39 1.024 0 1.414.39.39 1.024.39 1.414 0L12 13.415l2.293 2.292c.39.39 1.024.39 1.414 0 .39-.39.39-1.024 0-1.414L13.415 12l2.292-2.293c.39-.39.39-1.024 0-1.414-.39-.39-1.024-.39-1.414 0L12 10.585 9.707 8.293c-.39-.39-1.024-.39-1.414 0z" transform="translate(-638 -369) translate(478 120) translate(160 249)"/> </g> </g> </g> </g> </svg> 