<svg xmlns="http://www.w3.org/2000/svg" width="24" height="24" viewBox="0 0 24 24"> <g fill="none" fill-rule="evenodd"> <g> <g> <g> <path d="M0 0H24V24H0z" transform="translate(-558 -489) translate(478 120) translate(80 369)"/> <g stroke="#595F6B" stroke-linecap="round" stroke-linejoin="round" stroke-width="1.3"> <path d="M2 0h10c1.105 0 2 .895 2 2v8.879c0 1.358-.54 2.66-1.5 3.621-.96.96-2.263 1.5-3.621 1.5H2c-1.105 0-2-.895-2-2V2C0 .895.895 0 2 0z" transform="translate(-558 -489) translate(478 120) translate(80 369) rotate(180 9.25 10.25) matrix(-1 0 0 1 14 0)"/> <path d="M0 9v1c0 1.105.895 2 2 2s2 .895 2 2 .895 2 2 2h1.008" transform="translate(-558 -489) translate(478 120) translate(80 369) rotate(180 9.25 10.25)"/> </g> <path fill="#FFF" d="M2.5 10.5h18c1.105 0 2 .895 2 2v4c0 1.105-.895 2-2 2h-18c-1.105 0-2-.895-2-2v-4c0-1.105.895-2 2-2z" transform="translate(-558 -489) translate(478 120) translate(80 369)"/> <path stroke="#595F6B" stroke-linecap="round" stroke-linejoin="round" stroke-width="1.3" d="M2.5 10.5h18c1.105 0 2 .895 2 2v4c0 1.105-.895 2-2 2h-18c-1.105 0-2-.895-2-2v-4c0-1.105.895-2 2-2z" transform="translate(-558 -489) translate(478 120) translate(80 369)"/> <text fill="#464B55" font-family="Inter-ExtraBold, Inter" font-size="7" font-weight="600" letter-spacing="-.6" transform="translate(-558 -489) translate(478 120) translate(80 369)"> <tspan x="2" y="17">DOCX</tspan> </text> </g> </g> </g> </g> </svg> 