<svg xmlns="http://www.w3.org/2000/svg" width="24" height="24" viewBox="0 0 24 24"> <g fill="none" fill-rule="evenodd"> <g> <g> <g transform="translate(-478 -649) translate(478 120) translate(0 529)"> <path d="M0 0H24V24H0z"/> <circle cx="12.5" cy="9.5" r="2" stroke="#595F6B" stroke-linecap="round" stroke-linejoin="round" stroke-width="1.3"/> <path stroke="#595F6B" stroke-linecap="round" stroke-linejoin="round" stroke-width="1.3" d="M6.5 5.5h11c1.105 0 2 .895 2 2v9c0 1.105-.895 2-2 2h-11c-1.105 0-2-.895-2-2v-9c0-1.105.895-2 2-2z"/> <path stroke="#595F6B" stroke-linecap="round" stroke-linejoin="round" stroke-width="1.3" d="M5.5 14.5l2.293-2.293c.39-.39 1.024-.39 1.414 0L15.5 18.5h0"/> <path stroke="#595F6B" stroke-linecap="round" stroke-linejoin="round" stroke-width="1.3" d="M12.5 15.5l2.293-2.293c.39-.39 1.024-.39 1.414 0L18.5 15.5h0"/> </g> </g> </g> </g> </svg> 