<svg xmlns="http://www.w3.org/2000/svg" width="24" height="24" viewBox="0 0 24 24"> <g fill="none" fill-rule="evenodd"> <g> <g> <g> <path d="M0 0H24V24H0z" transform="translate(-638 -529) translate(478 120) translate(160 409)"/> <path stroke="#595F6B" stroke-linecap="round" stroke-linejoin="round" stroke-width="1.3" d="M6.5 4.5h3c.552 0 1 .448 1 1v13c0 .552-.448 1-1 1h-3c-.552 0-1-.448-1-1v-13c0-.552.448-1 1-1zM15.5 4.5c1.105 0 2 .895 2 2v8.838c0 .107-.017.214-.051.316l-1 3c-.175.524-.741.807-1.265.632-.299-.1-.533-.333-.633-.632l-1-3c-.034-.102-.051-.209-.051-.316V6.5c0-1.105.895-2 2-2zM7.5 10.5L6.5 10.5M7.5 16.5L6.5 16.5M7.5 13.5L6.5 13.5M7.5 7.5L6.5 7.5M14.5 7.5L16.5 7.5M14.5 14.5L16.5 14.5" transform="translate(-638 -529) translate(478 120) translate(160 409)"/> </g> </g> </g> </g> </svg> 