<svg xmlns="http://www.w3.org/2000/svg" width="24" height="24" viewBox="0 0 24 24"> <g fill="none" fill-rule="evenodd"> <g fill="#3075EA"> <g> <g> <path d="M11.53 8h.94c1.024 0 1.547.136 2.026.393.48.256.855.632 1.111 1.111.257.48.393 1.002.393 2.026v.94c0 1.024-.136 1.547-.393 2.026-.256.48-.632.855-1.111 1.111-.48.257-1.002.393-2.026.393h-.94c-1.024 0-1.547-.136-2.026-.393-.48-.256-.855-.632-1.111-1.111C8.136 14.016 8 13.494 8 12.47v-.94c0-1.024.136-1.547.393-2.026.256-.48.632-.855 1.111-1.111C9.984 8.136 10.506 8 11.53 8z" transform="translate(-638 -649) translate(478 120) translate(160 529)"/> </g> </g> </g> </g> </svg> 