<svg xmlns="http://www.w3.org/2000/svg" width="24" height="24" viewBox="0 0 24 24"> <g fill="none" fill-rule="evenodd"> <g> <g> <g> <path d="M0 0H24V24H0z" transform="translate(-678 -969) translate(478 120) translate(200 849)"/> <path stroke="#595F6B" stroke-linecap="round" stroke-linejoin="round" stroke-width="1.3" d="M7.5 5.5h10c1.105 0 2 .895 2 2v10c0 1.105-.895 2-2 2h-10c-1.105 0-2-.895-2-2v-10c0-1.105.895-2 2-2z" transform="translate(-678 -969) translate(478 120) translate(200 849)"/> <path stroke="#595F6B" stroke-linecap="round" stroke-linejoin="round" stroke-width="1.3" d="M9.502 12.5L11.503 15 15.5 10.5" transform="translate(-678 -969) translate(478 120) translate(200 849)"/> </g> </g> </g> </g> </svg> 