<svg xmlns="http://www.w3.org/2000/svg" width="24" height="24" viewBox="0 0 24 24"> <g fill="none" fill-rule="evenodd"> <g> <g> <g> <path d="M0 0H24V24H0z" transform="translate(-478 -1089) translate(478 120) translate(0 969)"/> <path fill="#FF871E" d="M19.5 3c.276 0 .5.224.5.5V5h1.5c.276 0 .5.224.5.5s-.224.5-.5.5H20v1.5c0 .276-.224.5-.5.5s-.5-.224-.5-.5V6h-1.5c-.276 0-.5-.224-.5-.5s.224-.5.5-.5H19V3.5c0-.276.224-.5.5-.5z" transform="translate(-478 -1089) translate(478 120) translate(0 969)"/> <path fill="#FF871E" d="M15.505 3.22L14 13l-8.4.764c-.55.05-1.037-.356-1.087-.906-.026-.282.07-.563.263-.77l9.008-9.701c.375-.405 1.008-.428 1.413-.052.243.225.358.557.308.884z" opacity=".493" transform="translate(-478 -1089) translate(478 120) translate(0 969)"/> <path fill="#FF871E" d="M11.558 10.858l6.843-.622c.55-.05 1.036.356 1.086.906.026.282-.07.563-.263.77l-9.008 9.701c-.375.405-1.008.428-1.413.052-.243-.225-.358-.557-.308-.884l1.267-8.235c.14-.908.88-1.604 1.796-1.688z" transform="translate(-478 -1089) translate(478 120) translate(0 969)"/> </g> </g> </g> </g> </svg> 