<svg xmlns="http://www.w3.org/2000/svg" width="24" height="24" viewBox="0 0 24 24"> <g fill="none" fill-rule="evenodd"> <g> <g> <g> <path d="M0 0H24V24H0z" transform="translate(-478 -929) translate(478 120) translate(0 809)"/> <path stroke="#595F6B" stroke-linecap="round" stroke-linejoin="round" stroke-width="1.3" d="M15.5 6.5h2.436c.892 0 1.215.093 1.54.267.327.174.583.43.757.756.174.326.267.65.267 1.54v5.873c0 .892-.093 1.215-.267 1.54-.174.327-.43.583-.756.757-.326.174-.65.267-1.54.267H15.5h0M9.5 6.5H7.064c-.892 0-1.215.093-1.54.267-.327.174-.583.43-.757.756-.174.326-.267.65-.267 1.54v5.873c0 .892.093 1.215.267 1.54.174.327.43.583.756.757.326.174.65.267 1.54.267H9.5M12.5 13.5L12.5 10.5M8.5 14.5L8.5 9.5M16.5 14.5L16.5 9.5" transform="translate(-478 -929) translate(478 120) translate(0 809)"/> </g> </g> </g> </g> </svg> 